<?xml version="1.0" encoding="utf-8"?>
<!-- Generator: Adobe Illustrator 23.0.3, SVG Export Plug-In . SVG Version: 6.00 Build 0)  -->
<svg version="1.1" id="Layer_1" xmlns="http://www.w3.org/2000/svg" xmlns:xlink="http://www.w3.org/1999/xlink" x="0px" y="0px"
	 viewBox="0 0 108 128" style="enable-background:new 0 0 108 128;" xml:space="preserve">
<style type="text/css">
	.st0{fill:#299B59;}
</style>
<title>expand lines</title>
<path class="st0" d="M69.2,34H16.8c-1.1,0-2,0.9-2,2s0.9,2,2,2h52.5c1.1,0,2-0.9,2-2S70.3,34,69.2,34z"/>
<path class="st0" d="M16.8,118h52.5c1.1,0,2-0.9,2-2s-0.9-2-2-2H16.8c-1.1,0-2,0.9-2,2S15.7,118,16.8,118z"/>
<path class="st0" d="M70,46c0.4-0.2,0.8-0.3,1.2-0.4c-0.2-0.9-1-1.6-2-1.6H16.8c-1.1,0-2,0.9-2,2s0.9,2,2,2h50.7
	C68.1,47.1,69,46.5,70,46z"/>
<path class="st0" d="M2,86c1.1,0,2-0.9,2-2V9c0-3.3,1.7-5,5-5h39v13.9c0,5.5,4.4,10,9.9,10.1c0,0,0,0,0.1,0h24v15.1
	c0.2,0,0.5,0,0.7,0c1.1,0,2.3,0.3,3.3,0.8V24L51.6,0H9C3.4,0,0,3.5,0,9v75C0,85.1,0.9,86,2,86z M52,17.9V5.2L79.1,24H58
	C54.7,24,52,21.3,52,17.9C52,18,52,18,52,17.9z"/>
<path class="st0" d="M82,103.4V119c0,3.3-1.7,5-5,5H9c-3.3,0-5-1.7-5-5V80c0-1.1-0.9-2-2-2s-2,0.9-2,2v39c0,5.6,3.4,9,9,9h68
	c5.6,0,9-3.4,9-9v-11.2l-3-6.6L82,103.4z"/>
<path class="st0" d="M106,72.9c-0.3-0.3-0.6-0.7-0.9-1.1c0.3-0.4,0.6-0.8,0.9-1.1c1-1.2,2.3-2.7,1.8-4.5s-2.2-2.5-3.7-3.2
	c-0.5-0.2-0.9-0.4-1.3-0.6c0.1-0.5,0.2-0.9,0.3-1.4c0.4-1.5,0.9-3.4-0.3-4.8c-0.9-0.9-2.2-1.4-3.5-1.3h-1.1c-0.5,0-1.1,0-1.6,0
	c-0.2-0.5-0.3-1-0.4-1.5c-0.3-1.5-0.7-3.3-2.4-4.1c-0.4-0.2-0.9-0.3-1.4-0.3c-1.2,0.1-2.4,0.5-3.4,1.2c-0.4,0.2-0.9,0.5-1.4,0.6
	c-0.4-0.4-0.7-0.7-1-1.2c-0.9-1.2-2.1-2.7-4-2.7s-3,1.6-3.9,2.8c-0.3,0.4-0.6,0.8-0.9,1.2c-0.5-0.2-0.9-0.4-1.4-0.6
	c-1-0.6-2.2-1-3.3-1.1c-0.5,0-1,0.1-1.4,0.3c-1.7,0.8-2,2.7-2.3,4.2c-0.1,0.5-0.2,1-0.3,1.4c-0.3,0-0.5,0-0.8,0h-1.5
	c-0.9,0-2.8,0-3.9,1.4s-0.7,3.4-0.2,4.9c0.2,0.4,0.3,0.9,0.4,1.4c-0.4,0.3-0.9,0.5-1.3,0.7c-1.4,0.6-3.2,1.4-3.6,3.2S59,70,60,71.1
	c0.3,0.3,0.6,0.7,0.9,1.1c-0.3,0.4-0.6,0.8-0.9,1.1c-1,1.2-2.3,2.7-1.8,4.5s2.2,2.5,3.7,3.2c0.5,0.2,0.9,0.4,1.3,0.6
	c-0.1,0.5-0.2,0.9-0.3,1.4c-0.4,1.5-0.9,3.4,0.3,4.8c0.9,0.9,2.2,1.4,3.5,1.3h1.1h0.9l-7,14.9c-0.5,1,0,2.2,1,2.7
	c0.5,0.2,1.1,0.3,1.6,0.1l5.2-2l1.5,5c0.3,0.8,1,1.3,1.8,1.3h0.1c0.8,0,1.5-0.5,1.8-1.2L81,96.2c0.6,0.6,1.4,0.9,2.3,0.9l0,0
	c0.7,0,1.3-0.2,1.9-0.6l6.2,13.5c0.3,0.7,1,1.2,1.8,1.2h0.1c0.8-0.1,1.5-0.6,1.8-1.4l1.5-5l5.2,2c1,0.4,2.2-0.1,2.6-1.1
	c0.2-0.5,0.2-1.1-0.1-1.6L97.2,89h2c0.9,0,2.8,0,3.9-1.4s0.7-3.4,0.2-4.9c-0.1-0.4-0.2-0.9-0.3-1.3c0.4-0.3,0.9-0.5,1.3-0.7
	c1.4-0.6,3.2-1.4,3.6-3.2S107,74,106,72.9z M73.2,103.4l-0.6-2c-0.3-1.1-1.4-1.7-2.5-1.3H70l-2.5,1l3.5-7.4c0.3,0.4,0.7,0.8,1.2,1
	c0.4,0.2,0.9,0.3,1.4,0.3c1.2-0.1,2.4-0.5,3.4-1.2l0.8-0.4L73.2,103.4z M96,100.1c-1-0.4-2.2,0.1-2.6,1.1v0.1l-0.6,2L88.1,93
	l0.1-0.1c0.5,0.2,0.9,0.4,1.4,0.6c1,0.6,2.2,1,3.3,1.1c0.5,0,1-0.1,1.4-0.3c0.3-0.2,0.6-0.4,0.8-0.6l3.4,7.3L96,100.1z M102.7,76.9
	c-1.3,0.6-2.7,1.2-3.4,2.6s-0.2,2.8,0.1,4.2c0.1,0.3,0.2,0.8,0.3,1.2c-0.3,0-0.8,0-1.3,0c-1.4,0-2.9-0.1-4.1,0.8s-1.5,2.5-1.7,3.9
	c-0.1,0.3-0.2,0.8-0.2,1.1c-0.4-0.1-0.8-0.4-1.1-0.5c-1-0.6-2.1-1-3.3-1.1c-0.3,0-0.5,0-0.8,0.1c-1.5,0.3-2.4,1.6-3.2,2.7
	c-0.2,0.3-0.5,0.7-0.8,1c-0.3-0.3-0.6-0.7-0.8-0.9c-0.8-1.1-1.8-2.3-3.3-2.6c-0.2,0-0.5-0.1-0.7-0.1c-1.2,0.1-2.3,0.5-3.3,1.1
	c-0.3,0.2-0.8,0.4-1.1,0.6c-0.1-0.3-0.2-0.8-0.3-1.1c-0.3-1.4-0.6-2.9-1.8-3.8c-0.9-0.6-2-0.9-3.1-0.9h-1.1c-0.4,0-0.9,0-1.2,0
	c0.1-0.3,0.2-0.8,0.3-1.1c0.3-1.3,0.7-2.8,0.1-4.2s-2.1-2-3.4-2.5c-0.3-0.1-0.7-0.3-1-0.5c0.2-0.3,0.5-0.6,0.7-0.9
	c0.9-1,1.9-2.2,1.9-3.7s-1.1-2.7-2-3.7c-0.2-0.2-0.5-0.6-0.7-0.9c0.3-0.2,0.7-0.3,1-0.5c1.3-0.6,2.7-1.2,3.4-2.6s0.2-2.8-0.1-4.2
	c-0.1-0.3-0.2-0.8-0.3-1.2c0.3,0,0.8,0,1.3,0c1.4,0,2.9,0.1,4.1-0.8s1.5-2.5,1.7-3.9c0.1-0.3,0.2-0.8,0.2-1.1
	c0.3,0.1,0.8,0.4,1.1,0.5c1,0.6,2.1,1,3.3,1.1c0.3,0,0.5,0,0.8-0.1c1.5-0.3,2.4-1.6,3.2-2.7c0.2-0.3,0.5-0.7,0.8-1
	c0.3,0.3,0.6,0.7,0.8,0.9c0.8,1.1,1.8,2.3,3.3,2.7c0.2,0,0.5,0.1,0.7,0.1c1.2-0.1,2.3-0.5,3.3-1.1c0.3-0.2,0.8-0.4,1.1-0.5
	c0.1,0.3,0.2,0.8,0.3,1.1c0.3,1.4,0.6,2.9,1.8,3.8c0.9,0.6,2,0.9,3.1,0.8h1.1c0.4,0,0.9,0,1.2,0c-0.1,0.4-0.2,0.8-0.3,1.1
	c-0.3,1.3-0.7,2.8-0.1,4.2s2.1,2,3.4,2.5c0.3,0.1,0.7,0.3,1,0.5c-0.2,0.3-0.5,0.6-0.7,0.9c-0.9,1.1-1.9,2.3-1.9,3.8s1.1,2.7,2,3.7
	c0.2,0.2,0.5,0.6,0.7,0.9C103.4,76.6,103,76.8,102.7,76.9z"/>
<path class="st0" d="M83,60c-6.6,0-12,5.4-12,12s5.4,12,12,12s12-5.4,12-12S89.6,60,83,60z M83,80c-4.4,0-8-3.6-8-8s3.6-8,8-8
	s8,3.6,8,8S87.4,80,83,80z"/>
<path class="st0" d="M59.8,54.1L59.8,54.1l-43-0.1c-1.1,0-2,0.9-2,2s0.9,2,2,2h41.5C58.4,56.6,58.9,55.2,59.8,54.1z"/>
<path class="st0" d="M14.8,66c0,1.1,0.9,2,2,2H54c-0.1-1.4,0.2-2.8,0.8-4h-38C15.7,64,14.8,64.9,14.8,66z"/>
<path class="st0" d="M16.8,74c-1.1,0-2,0.9-2,2s0.9,2,2,2h37.4c-0.2-1.4,0-2.8,0.6-4H16.8z"/>
<path class="st0" d="M16.8,84c-1.1,0-2,0.9-2,2s0.9,2,2,2h42.1c-0.4-1.3-0.5-2.7-0.3-4H16.8z"/>
<path class="st0" d="M16.8,94c-1.1,0-2,0.9-2,2s0.9,2,2,2h43.3l1.9-4H16.8z"/>
<path class="st0" d="M16.8,104c-1.1,0-2,0.9-2,2s0.9,2,2,2h41.7c-0.8-1.2-1.1-2.6-0.9-4H16.8z"/>
</svg>
