<?xml version="1.0" encoding="utf-8"?>
<!-- Generator: Adobe Illustrator 24.3.0, SVG Export Plug-In . SVG Version: 6.00 Build 0)  -->
<svg version="1.1" id="Layer_1" xmlns="http://www.w3.org/2000/svg" xmlns:xlink="http://www.w3.org/1999/xlink" x="0px" y="0px"
	 viewBox="0 0 128.1 128" style="enable-background:new 0 0 128.1 128;" xml:space="preserve">
<style type="text/css">
	.st0{fill:#015CC8;}
</style>
<path class="st0" d="M29.5,120.6l4.3-13.8c0.4-1-0.2-2.2-1.2-2.5c-1-0.4-2.2,0.2-2.5,1.2c0,0,0,0.1,0,0.1l-6.1,19.8
	c-0.3,1.1,0.3,2.2,1.3,2.5c0.6,0.2,1.3,0.1,1.8-0.3l30.2-23.1l-1.6-3.8L29.5,120.6z"/>
<path class="st0" d="M126.1,47.4h-18.6c-1.1,0-2,0.9-2,2s0.9,2,2,2h12.7L93.4,71.8l1.6,3.8L127.3,51c0.9-0.6,1.1-1.9,0.5-2.8
	C127.4,47.7,126.7,47.3,126.1,47.4z"/>
<path class="st0" d="M100.4,112.9l-3.7,1.5l1.9,6.2l-5.9-4.5l-4.3,1.8l12.8,9.8c0.9,0.7,2.1,0.5,2.8-0.4c0.4-0.5,0.5-1.2,0.3-1.8
	L100.4,112.9z"/>
<path class="st0" d="M93.6,111.4L93.6,111.4l8.2-3.4c1-0.4,1.5-1.6,1.1-2.6c0,0,0,0,0,0l-16.5-40c-0.3-0.7-0.8-1.2-1.4-1.6
	L65.6,51.5c-0.9-0.6-2.1-0.7-3.1-0.3l-4.1,1.7c-0.4,0.2-0.8,0.5-1.1,0.8c0.2,1,0.4,1.9,0.8,2.9c0.4,0.9,0.9,1.9,1.4,2.7l0.7-2.8
	l3.5-1.4l19.1,12.1l15.6,38l-4.6,1.9l-7.5-18.3c-0.4-1-1.6-1.5-2.6-1.1c-1,0.4-1.5,1.6-1.1,2.6l7.5,18.2l-12.6,5.2l-7.5-18.2
	c-0.4-1-1.6-1.5-2.6-1.1c-1,0.4-1.5,1.6-1.1,2.6l7.5,18.2l-3.1,1.3l-15.7-38l1.3-5.8C55.2,71.9,54,71,53,70l-1.8,7.7
	c-0.2,0.7-0.1,1.4,0.2,2.1l16.5,40c0.3,0.7,1,1.2,1.8,1.2c0.3,0,0.5-0.1,0.8-0.2L93.6,111.4L93.6,111.4z"/>
<path class="st0" d="M55.8,35.4l8.2-26.6L76.8,50c0.3,0.8,1,1.4,1.9,1.4h15.2c1.1,0,2-0.9,2-2s-0.9-2-2-2H80.2L66,1.4
	c-0.3-1.1-1.4-1.6-2.5-1.3c-0.6,0.2-1.1,0.7-1.3,1.3L50.9,37.9C52.3,36.7,54,35.9,55.8,35.4L55.8,35.4z"/>
<path class="st0" d="M34.1,92.3c-0.4,1,0.2,2.2,1.2,2.5c1,0.4,2.2-0.2,2.5-1.2c0,0,0-0.1,0-0.1l4.4-14.2c0.2-0.8,0-1.7-0.7-2.2
	L8,51.4h37.1c0-1.3,0.1-2.7,0.4-4H2.1c-1.1,0-2,0.8-2.1,1.9C0,50,0.3,50.6,0.9,51l37.2,28.4L34.1,92.3z"/>
<path class="st0" d="M50.7,59.6c1.6,4.2,4.5,7.7,8.4,9.9c0.1,0.9,0.3,1.7,0.6,2.5c1.3,3,4.3,5,7.7,4.9c1.1,0,2.1-0.2,3.1-0.6
	c1-0.4,1.5-1.6,1.1-2.6c-0.4-1-1.6-1.5-2.6-1.1c-1.9,0.8-4.2,0.1-5.3-1.7c0.3,0,0.6,0,0.9,0c1.2,0,2.4-0.2,3.5-0.7
	c1-0.4,1.5-1.6,1.1-2.6s-1.6-1.5-2.6-1.1c-0.9,0.4-1.9,0.5-2.8,0.3c0.5-0.7,1.2-1.3,2-1.6c2.1-0.9,4.6,0.1,5.6,2.2
	c0.4,1,1.6,1.5,2.6,1.1s1.5-1.6,1.1-2.6c-1.8-4.1-6.5-6-10.7-4.3c-1.8,0.7-3.3,2-4.2,3.8c-2.5-1.8-4.4-4.4-5.6-7.3
	c-2.5-6.3-1.3-13,2.7-14.7c1.5-0.6,3.2-0.5,4.7,0.2c3,1.3,5.8,4.4,7.4,8.3c0.4,1,1.6,1.5,2.6,1.1c1-0.4,1.5-1.6,1.1-2.6
	c-2-4.9-5.6-8.8-9.6-10.5c-2.4-1.1-5.2-1.2-7.8-0.2C49.4,42.3,47.2,51,50.7,59.6z"/>
</svg>
