<?xml version="1.0" encoding="utf-8"?>
<!-- Generator: Adobe Illustrator 24.3.0, SVG Export Plug-In . SVG Version: 6.00 Build 0)  -->
<svg version="1.1" id="Layer_1" xmlns="http://www.w3.org/2000/svg" xmlns:xlink="http://www.w3.org/1999/xlink" x="0px" y="0px"
	 viewBox="0 0 904.8 817.8" style="enable-background:new 0 0 904.8 817.8;" xml:space="preserve">
<style type="text/css">
	.st0{fill:#015CC8;}
</style>
<path class="st0" d="M188.3,641c-5.7,0-11.4-1.2-16.8-3.6c-10-4.5-17.6-12.6-21.5-22.8L73.3,412.4c-3.9-10.2-3.5-21.3,0.9-31.3
	c4.5-10,12.6-17.6,22.8-21.5l265.9-100.9l105.8,278.7L202.9,638.3C198.2,640.1,193.3,641,188.3,641z M345.6,297.5l-237.8,90.3
	c-2.7,1-4.9,3.1-6.1,5.7c-1.2,2.7-1.3,5.6-0.3,8.4l76.7,202.2c1,2.7,3.1,4.9,5.7,6.1c2.7,1.2,5.6,1.3,8.4,0.3L430,520.2L345.6,297.5
	z"/>
<path class="st0" d="M90.1,630.4c-21.6,0-42-13.2-50.1-34.6L3.5,499.5C-7,471.9,7,440.9,34.6,430.4l68.1-25.8L177.3,601L109,626.9
	C102.8,629.3,96.4,630.4,90.1,630.4z M85.1,443.3l-40,15.2c-12.1,4.6-18.3,18.2-13.7,30.4l36.5,96.3c4.6,12.1,18.2,18.3,30.4,13.7
	l40-15.2L85.1,443.3z"/>
<path class="st0" d="M777.6,601.1c-1.4,0-2.8-0.1-4.2-0.4l0,0L438.5,542L337.2,275.4L548.8,9.3c5.5-6.9,14.3-10.4,23.1-9
	c8.7,1.4,16.1,7.3,19.2,15.6l209.4,551.9c3.1,8.3,1.6,17.6-4,24.4C791.9,597.9,784.8,601.1,777.6,601.1z M460.4,515.4l308.8,54.1
	L566.5,35.4L371.4,280.8L460.4,515.4z"/>
<path class="st0" d="M325.7,817.8c-7.4,0-14.5-4.1-18-11.1L205.2,605.4l168.7-64l20,52.6c7.4,19.6,4.5,41.4-7.8,58.4l-10.2,14.1
	l47.9,91.3c2.7,5.1,3.1,11.2,1,16.6c-2.1,5.4-6.3,9.7-11.8,11.8l-80.1,30.4C330.6,817.4,328.1,817.8,325.7,817.8z M247.1,621.5
	l83.3,163.8l61.7-23.4l-51.5-98l21.2-29.2c6.4-8.7,7.9-20,4-30.1l-9.3-24.5L247.1,621.5z"/>
<rect x="782.5" y="225.9" transform="matrix(0.9349 -0.3548 0.3548 0.9349 -31.4906 310.1418)" class="st0" width="94.9" height="30"/>
<rect x="687.4" y="78.9" transform="matrix(0.6921 -0.7218 0.7218 0.6921 158.4833 559.3644)" class="st0" width="95" height="30"/>
<rect x="841.3" y="366.6" transform="matrix(8.088352e-02 -0.9967 0.9967 8.088352e-02 374.3211 1234.1068)" class="st0" width="30" height="94.9"/>
<rect x="166" y="387.5" transform="matrix(0.9349 -0.3548 0.3548 0.9349 -126.9192 112.9488)" class="st0" width="157.1" height="30"/>
</svg>
