<?xml version="1.0" encoding="utf-8"?>
<!-- Generator: Adobe Illustrator 23.0.6, SVG Export Plug-In . SVG Version: 6.00 Build 0)  -->
<svg version="1.1" id="Layer_1" xmlns="http://www.w3.org/2000/svg" xmlns:xlink="http://www.w3.org/1999/xlink" x="0px" y="0px"
	 viewBox="0 0 89.6 89.7" style="enable-background:new 0 0 89.6 89.7;" xml:space="preserve">
<style type="text/css">
	.st0{fill:#FFFFFF;}
</style>
<g>
	<path class="st0" d="M86.1,44c-0.9,0-1.8,0.4-2.4,1v-9.7c0.2-0.3,0.3-0.6,0.3-0.9c0-0.8-0.7-1.5-1.5-1.5h-8.2
		C73.6,14.6,58.6,0,40.2,0S6.7,14.6,6,32.8H1.5c-0.8,0-1.5,0.7-1.5,1.5c0,0,0,0,0,0c0,0.2,0,0.4,0.1,0.6l19.1,52.8
		c0.1,0.4,0.4,0.6,0.7,0.8c0,0,0.1,0,0.1,0.1c0.1,0,0.1,0.1,0.2,0.1c1.9,0.6,10.4,1,20.6,1c10.1,0,18.6-0.4,20.5-1
		c0.1,0,0.2-0.1,0.3-0.1c0,0,0,0,0,0c0.3-0.2,0.6-0.4,0.7-0.8l18.3-51.9h0.1v15.6c0,0.8,0.7,1.5,1.5,1.5c0.2,0,0.3,0,0.5-0.1
		c0.2,1.7,1.7,3,3.4,3c1.9,0,3.5-1.6,3.5-3.5v-4.9C89.6,45.5,88,44,86.1,44z M70.7,28.8C68.8,23.6,64.2,19.1,58,16
		c-2.6-5.2-6.2-9.2-10.4-11.5C59.4,7.5,68.6,17,70.7,28.8z M30.7,35.8c0,2.2,0.1,4.3,0.3,6.4c-4.4-0.4-8.3-1-11.4-1.9
		c-0.2-1.5-0.3-3-0.4-4.6L30.7,35.8L30.7,35.8z M19.2,32.8c0.1-1.6,0.2-3.2,0.4-4.8c3.2-0.8,7-1.5,11.4-1.9
		c-0.2,2.2-0.3,4.4-0.3,6.6H19.2z M31.1,43.3c0.4,4.2,1,8.1,1.8,11.5c-3.6-0.6-7-1.7-10-3.1c-1.5-3-2.5-6.5-3.2-10.2
		C23.1,42.3,27,42.9,31.1,43.3z M31.7,32.8c0-2.3,0.1-4.6,0.3-6.7c2.5-0.2,5.3-0.3,8.1-0.3s5.6,0.1,8.1,0.3c0.2,2.1,0.3,4.4,0.3,6.7
		H31.7z M48.5,35.8c0,2.3-0.1,4.5-0.3,6.5c-2.5,0.2-5.3,0.3-8.1,0.3c-2.9,0-5.6-0.1-8.1-0.3c-0.2-2.1-0.3-4.2-0.3-6.5L48.5,35.8
		L48.5,35.8z M32.1,43.3c2.6,0.2,5.3,0.3,8,0.3c2.7,0,5.4-0.1,8-0.3c-0.4,4.5-1.1,8.4-1.9,11.6c-2,0.3-4,0.4-6.1,0.4
		S36,55.2,34,54.9C33.1,51.7,32.5,47.8,32.1,43.3z M49.1,43.3c4.1-0.4,8-1,11.4-1.8c-0.6,3.7-1.7,7.2-3.2,10.2
		c-3,1.4-6.4,2.5-10,3.1C48.1,51.4,48.8,47.4,49.1,43.3z M49.5,35.8H61c-0.1,1.6-0.2,3.1-0.4,4.6c-3.2,0.8-7,1.5-11.4,1.9
		C49.4,40.1,49.5,38,49.5,35.8z M49.2,26.2c4.4,0.4,8.3,1,11.4,1.9c0.2,1.5,0.4,3.1,0.4,4.8H49.5C49.5,30.6,49.4,28.4,49.2,26.2z
		 M61.5,41.2c4.1-1.1,7.2-2.5,8.9-4.2c-1.1,5.7-5.4,10.7-11.7,14C60,48,61,44.7,61.5,41.2z M62,35.8h8c-1.2,1.6-4.1,3.1-8.4,4.3
		C61.9,38.7,62,37.3,62,35.8z M61.7,28.3c4.4,1.3,7.4,2.8,8.5,4.5h-8.1C62,31.3,61.9,29.8,61.7,28.3z M61.5,27.3
		c-0.6-3.5-1.5-6.8-2.8-9.8c6.3,3.3,10.6,8.3,11.7,14C68.8,29.8,65.6,28.3,61.5,27.3z M60.5,27c-3.4-0.8-7.3-1.4-11.4-1.8
		c-0.4-4.2-1-8.1-1.8-11.5c3.6,0.6,7,1.7,10,3.1C58.8,19.8,59.9,23.3,60.5,27z M48.1,25.1c-2.6-0.2-5.3-0.3-8-0.3
		c-2.7,0-5.4,0.1-8,0.3c0.4-4.5,1.1-8.4,1.9-11.6c2-0.3,4-0.4,6.1-0.4c2.1,0,4.2,0.1,6.1,0.4C47.1,16.7,47.7,20.7,48.1,25.1z
		 M31.1,25.2c-4.1,0.4-8,1-11.4,1.8c0.6-3.7,1.7-7.2,3.2-10.2c3-1.4,6.4-2.5,10-3.1C32.1,17.1,31.4,21.1,31.1,25.2z M18.7,27.3
		c-4.1,1.1-7.2,2.5-8.9,4.2c1.1-5.7,5.4-10.7,11.7-14C20.2,20.5,19.2,23.7,18.7,27.3z M18.2,32.8H10c1.1-1.6,4.1-3.2,8.5-4.5
		C18.3,29.8,18.2,31.3,18.2,32.8z M18.5,40.1c-4.3-1.2-7.2-2.7-8.4-4.3h8C18.2,37.3,18.3,38.7,18.5,40.1z M18.7,41.2
		c0.6,3.5,1.5,6.8,2.8,9.8c-6.3-3.3-10.6-8.3-11.7-14C11.4,38.7,14.6,40.1,18.7,41.2z M22.2,52.4c2.6,5.2,6.2,9.2,10.4,11.5
		C20.8,61,11.6,51.5,9.5,39.6C11.4,44.9,16,49.4,22.2,52.4z M23.6,53.1c2.9,1.3,6.1,2.2,9.6,2.7c1.1,4,2.5,7.1,4.2,8.7
		C31.8,63.5,26.9,59.2,23.6,53.1z M34.3,56c1.9,0.3,3.8,0.4,5.8,0.4c2,0,4-0.1,5.8-0.4c-1.6,5.6-3.8,8.8-5.8,8.8S35.9,61.6,34.3,56z
		 M47,55.8c3.4-0.5,6.7-1.5,9.6-2.7c-3.3,6.1-8.2,10.4-13.7,11.4C44.5,62.9,45.9,59.8,47,55.8z M58,52.4c6.2-3,10.8-7.5,12.7-12.8
		C68.6,51.5,59.4,61,47.6,63.9C51.9,61.7,55.5,57.6,58,52.4z M56.6,15.4c-2.9-1.3-6.1-2.2-9.6-2.7c-1.1-4-2.5-7.1-4.2-8.7
		C48.4,5,53.3,9.2,56.6,15.4z M40.1,3.7c2.1,0,4.2,3.2,5.8,8.8c-1.9-0.3-3.8-0.4-5.8-0.4c-2,0-4,0.1-5.8,0.4
		C35.9,6.9,38,3.7,40.1,3.7z M33.2,12.6c-3.4,0.5-6.7,1.5-9.6,2.7C26.9,9.2,31.8,5,37.4,3.9C35.7,5.6,34.3,8.7,33.2,12.6z M32.6,4.6
		c-4.2,2.2-7.9,6.3-10.4,11.5C16,19,11.4,23.6,9.5,28.8C11.6,17,20.8,7.5,32.6,4.6z M59.1,87.8c-3.6-0.4-10.5-0.7-18.4-0.7
		c-7.9,0-14.8,0.3-18.4,0.7l-18.7-52H6C6.8,52.1,19,65.5,34.8,68v6.8h11.3v-3h8.6c0.8,0,1.5-0.7,1.5-1.5s-0.7-1.5-1.5-1.5h-8.6v-1
		c15.5-2.7,27.5-16,28.2-32.1h3.1L59.1,87.8z"/>
	<circle class="st0" cx="40.4" cy="80" r="4.1"/>
</g>
</svg>
