<?xml version="1.0" encoding="utf-8"?>
<!-- Generator: Adobe Illustrator 24.3.0, SVG Export Plug-In . SVG Version: 6.00 Build 0)  -->
<svg version="1.1"
	 id="Layer_1" xmlns:cc="http://creativecommons.org/ns#" xmlns:dc="http://purl.org/dc/elements/1.1/" xmlns:inkscape="http://www.inkscape.org/namespaces/inkscape" xmlns:rdf="http://www.w3.org/1999/02/22-rdf-syntax-ns#" xmlns:sodipodi="http://sodipodi.sourceforge.net/DTD/sodipodi-0.dtd" xmlns:svg="http://www.w3.org/2000/svg"
	 xmlns="http://www.w3.org/2000/svg" xmlns:xlink="http://www.w3.org/1999/xlink" x="0px" y="0px" viewBox="0 0 78.5 86.5"
	 style="enable-background:new 0 0 78.5 86.5;" xml:space="preserve">
<style type="text/css">
	.st0{fill:#015CC8;stroke:#015CC8;stroke-width:0.5;stroke-miterlimit:10;}
</style>
<path class="st0" d="M1.2,0.3c-0.5,0-1,0.5-0.9,1.1c0,0.5,0.5,1,1.1,0.9c4,0.2,6.9,0.2,8.7,0.4C11,2.8,11.6,3,12,3.1
	c0.3,0.2,0.4,0.2,0.4,0.4C16.2,17.8,22.7,39.6,25,48.3h-2.7c-2.6,0-5.1,0.6-6.9,1.9c-1.9,1.3-3.1,3.4-3.1,6.1c0,3.1,1.2,5.5,3,6.9
	c1.9,1.5,4.4,2.1,7,2.1h54.9c0.5,0,1-0.5,1-1s-0.5-1-1-1H22.3c-2.3,0-4.3-0.5-5.7-1.6c-1.4-1.1-2.3-2.7-2.3-5.4
	c0-2.1,0.8-3.5,2.2-4.5c1.4-1,3.5-1.5,5.8-1.5H26c0.3,0,0.5,0,0.7-0.1l50.6-5c0.5,0,0.9-0.5,0.9-1v-34c0-0.5-0.5-1-1-1H17.3
	c-0.5,0-0.9,0.4-1,0.8c-0.7-2.6-1.4-4.8-2-7.1c-0.2-0.7-0.8-1.3-1.5-1.7c-0.7-0.3-1.5-0.5-2.5-0.6c-2-0.2-4.9-0.3-8.9-0.4
	C1.3,0.2,1.3,0.2,1.2,0.3L1.2,0.3z M16.5,10.9c0.2,0.2,0.5,0.4,0.8,0.3h58.9v32.1l-49.2,4.8C25.2,41.2,20.4,24.7,16.5,10.9z
	 M35.1,18.3c-0.5,0-1,0.6-0.9,1.1c0,0.5,0.6,1,1.1,0.9h30c0.5,0,1-0.5,1-1s-0.5-1-1-1C55.2,18.3,45.1,18.3,35.1,18.3L35.1,18.3z
	 M35.1,27.3c-0.5,0-1,0.6-0.9,1.1c0,0.5,0.6,1,1.1,0.9h30c0.5,0,1-0.5,1-1s-0.5-1-1-1C55.2,27.3,45.1,27.3,35.1,27.3L35.1,27.3z
	 M35.1,36.3c-0.5,0-1,0.6-0.9,1.1c0,0.5,0.6,1,1.1,0.9h19c0.5,0,1-0.5,1-1s-0.5-1-1-1C47.9,36.3,41.5,36.3,35.1,36.3L35.1,36.3z
	 M60.1,36.3c-0.5,0-1,0.6-0.9,1.1c0,0.5,0.6,1,1.1,0.9h5c0.5,0,1-0.5,1-1s-0.5-1-1-1C63.5,36.3,61.8,36.3,60.1,36.3L60.1,36.3z
	 M19.8,73.3c-3.6,0-6.5,2.9-6.5,6.5c0,3.6,2.9,6.5,6.5,6.5c3.6,0,6.5-2.9,6.5-6.5C26.3,76.2,23.4,73.3,19.8,73.3z M71.7,73.3
	c-3.6,0-6.5,2.9-6.5,6.5c0,3.6,2.9,6.5,6.5,6.5s6.5-2.9,6.5-6.5C78.2,76.2,75.3,73.3,71.7,73.3z M19.8,75.2c2.5,0,4.5,2,4.5,4.5
	c0,2.5-2,4.5-4.5,4.5s-4.5-2-4.5-4.5C15.3,77.3,17.3,75.2,19.8,75.2z M71.7,75.2c2.5,0,4.5,2,4.5,4.5c0,2.5-2,4.5-4.5,4.5
	s-4.5-2-4.5-4.5C67.2,77.3,69.3,75.2,71.7,75.2z"/>
</svg>
