<?xml version="1.0" encoding="utf-8"?>
<!-- Generator: Adobe Illustrator 23.0.6, SVG Export Plug-In . SVG Version: 6.00 Build 0)  -->
<svg version="1.1" id="Layer_1" xmlns="http://www.w3.org/2000/svg" xmlns:xlink="http://www.w3.org/1999/xlink" x="0px" y="0px"
	 viewBox="0 0 128 128" style="enable-background:new 0 0 128 128;" xml:space="preserve">
<style type="text/css">
	.st0{fill:#FFFFFF;}
</style>
<path class="st0" d="M112.4,85.2H92.6c20.8-16.1,24.6-45.9,8.5-66.7C92.5,7.3,79.4,0.6,65.4,0c-0.6,0-1.2,0-1.9,0h0
	C37.3,0,16,21.3,16,47.6c0,10.3,3.3,20.3,9.5,28.5c2.6,3.4,5.6,6.5,9,9.1H15.6C7,85.2,0,92.2,0,100.8v11.6C0,121,7,128,15.6,128
	h96.8c8.6,0,15.6-7,15.6-15.6v-11.6C128,92.2,121,85.2,112.4,85.2z M124,112.4c0,6.4-5.2,11.6-11.6,11.6H15.6
	C9.2,124,4,118.8,4,112.4v-11.6c0-6.4,5.2-11.6,11.6-11.6c0,0,0,0,0,0h35c-23-7.1-35.8-31.5-28.7-54.5C27.6,16.4,44.4,4,63.5,4
	c0.6,0,1.1,0,1.7,0C89.3,5,108,25.2,107,49.3c-0.7,18.4-13,34.4-30.6,39.9h36c6.4,0,11.6,5.2,11.6,11.6V112.4z"/>
<path class="st0" d="M30,100.3h-3.3l-0.9-2.7c-0.7-2.1-3-3.2-5.1-2.4c-1.1,0.4-2,1.3-2.4,2.4l-0.9,2.7H14c-2.2,0-4,1.8-4,4
	c0,1.3,0.7,2.6,1.8,3.3l2.4,1.6l-0.9,2.4c-0.7,2.1,0.4,4.4,2.4,5.1c1.2,0.4,2.5,0.3,3.6-0.4l2.7-1.8l2.7,1.8
	c1.8,1.2,4.3,0.7,5.5-1.1c0.7-1,0.9-2.4,0.4-3.6l-0.9-2.4l2.3-1.5c1.9-1.2,2.4-3.7,1.2-5.5C32.6,101,31.4,100.3,30,100.3L30,100.3z
	 M25.1,107.7l1.9,5.3l-4.9-3.3l-4.9,3.3l1.9-5.3l-4.9-3.3h6.1L22,99l1.9,5.3H30L25.1,107.7z"/>
<path class="st0" d="M58,100.3h-3.3l-0.9-2.7c-0.7-2.1-3-3.2-5.1-2.4c-1.1,0.4-2,1.3-2.4,2.4l-0.9,2.7H42c-2.2,0-4,1.8-4,4
	c0,1.3,0.7,2.6,1.8,3.3l2.4,1.6l-0.9,2.4c-0.7,2.1,0.4,4.4,2.4,5.1c1.2,0.4,2.5,0.3,3.6-0.4l2.7-1.8l2.7,1.8
	c1.8,1.2,4.3,0.7,5.5-1.1c0.7-1,0.9-2.4,0.4-3.6l-0.9-2.4l2.3-1.5c1.9-1.2,2.4-3.7,1.2-5.5C60.6,101,59.4,100.3,58,100.3L58,100.3z
	 M53.1,107.7l1.9,5.3l-4.9-3.3l-4.9,3.3l1.9-5.3l-4.9-3.3h6.1L50,99l1.9,5.3H58L53.1,107.7z"/>
<path class="st0" d="M86,100.3h-3.3l-0.9-2.7c-0.7-2.1-3-3.2-5.1-2.4c-1.1,0.4-2,1.3-2.4,2.4l-0.9,2.7H70c-2.2,0-4,1.8-4,4
	c0,1.3,0.7,2.6,1.8,3.3l2.4,1.6l-0.9,2.4c-0.7,2.1,0.4,4.4,2.4,5.1c1.2,0.4,2.5,0.3,3.6-0.4l2.7-1.8l2.7,1.8
	c1.8,1.2,4.3,0.7,5.5-1.1c0.7-1,0.9-2.4,0.4-3.6l-0.9-2.4l2.3-1.5c1.9-1.2,2.4-3.7,1.2-5.5C88.6,101,87.4,100.3,86,100.3L86,100.3z
	 M81.1,107.7l1.9,5.3l-4.9-3.3l-4.9,3.3l1.9-5.3l-4.9-3.3h6.1L78,99l1.9,5.3H86L81.1,107.7z"/>
<path class="st0" d="M114,100.3h-3.3l-0.9-2.7c-0.7-2.1-3-3.2-5.1-2.4c-1.1,0.4-2,1.3-2.4,2.4l-0.9,2.7H98c-2.2,0-4,1.8-4,4
	c0,1.3,0.7,2.6,1.8,3.3l2.4,1.6l-0.9,2.4c-0.7,2.1,0.4,4.4,2.4,5.1c1.2,0.4,2.5,0.3,3.6-0.4l2.7-1.8l2.7,1.8
	c1.8,1.2,4.3,0.7,5.5-1.1c0.7-1,0.9-2.4,0.4-3.6l-0.9-2.4l2.3-1.5c1.9-1.2,2.4-3.7,1.2-5.5C116.6,101,115.4,100.3,114,100.3
	L114,100.3z M109.1,107.7l1.9,5.3l-4.9-3.3l-4.9,3.3l1.9-5.3l-4.9-3.3h6.1L106,99l1.9,5.3h6.1L109.1,107.7z"/>
<path class="st0" d="M88.8,64c0-0.9-0.2-1.7-0.6-2.5c3-1.3,4.4-4.9,3.1-7.9c-0.2-0.4-0.4-0.7-0.6-1c2.4-2,2.8-5.5,1-8
	c2.5-2.2,2.8-5.9,0.7-8.5c-1.1-1.3-2.8-2.1-4.6-2.1h-16c3.3-5.7,2.1-12.2,0.9-15.9C71.9,15.6,69.6,14,67,14h-0.3
	c-3,0-5.5,2.3-5.8,5.3c-0.8,6.8-7.3,13-11.1,16C48.6,33.9,46.9,33,45,33h-4c-3.3,0-6,2.7-6,6v26c0,3.3,2.7,6,6,6h4
	c1.2,0,2.3-0.3,3.3-1h34.4C86.1,70,88.7,67.3,88.8,64z M47,65c0,1.1-0.9,2-2,2h-4c-1.1,0-2-0.9-2-2V39c0-1.1,0.9-2,2-2h4
	c1.1,0,2,0.9,2,2V65z M51,65V39.5c3.8-2.9,12.8-10.6,13.8-19.7c0.1-1,0.9-1.8,1.9-1.8H67c0.8,0,1.6,0.5,1.9,1.3
	c1.1,3.6,2.3,10.4-2.6,15.3c-0.8,0.8-0.8,2.1,0,2.8c0.4,0.4,0.9,0.6,1.4,0.6h20c1.1,0,2,0.9,2,2s-0.9,2-2,2h-11c-1.1,0-2,0.9-2,2
	s0.9,2,2,2h10c1.1,0,2,0.9,2,2s-0.9,2-2,2h-10c-1.1,0-2,0.9-2,2s0.9,2,2,2h9c1.1,0,2,0.9,2,2s-0.9,2-2,2h-9c-1.1,0-2,0.9-2,2
	s0.9,2,2,2h6c1.1,0,2,0.9,2,2s-0.9,2-2,2H50.9C51,65.7,51,65.3,51,65z"/>
</svg>
