<?xml version="1.0" encoding="utf-8"?>
<!-- Generator: Adobe Illustrator 23.0.3, SVG Export Plug-In . SVG Version: 6.00 Build 0)  -->
<svg version="1.1" id="Layer_1" xmlns="http://www.w3.org/2000/svg" xmlns:xlink="http://www.w3.org/1999/xlink" x="0px" y="0px"
	 viewBox="0 0 82.1 100" style="enable-background:new 0 0 82.1 100;" xml:space="preserve">
<style type="text/css">
	.st0{fill:#299B59;}
</style>
<title>All3</title>
<path class="st0" d="M0.1,33.7v11.5C0,58.3,4.4,71,12.6,81.2c6.7,8.8,16,15.3,26.6,18.5c1.2,0.4,2.6,0.4,3.8,0
	c11.5-3.5,20.6-10.3,27.7-19.9c5.6-7.4,9.2-16.1,10.7-25.3c0.5-2.9,0.7-5.8,0.7-8.7c0.1-8.9,0.1-17.8,0.1-26.7
	c0.1-0.7-0.3-1.3-1-1.5C68.1,11.9,55,6.1,42,0.2c-0.6-0.3-1.3-0.3-1.9,0C27.1,6,14,11.8,1,17.6c-0.7,0.2-1.1,0.9-1,1.7
	C0.1,24,0.1,28.9,0.1,33.7z M7.1,36.4c0-4,0-8,0-12C7,23.8,7.4,23.2,8,23c10.8-4.8,21.5-9.6,32.3-14.4c0.5-0.2,1.1-0.2,1.6,0
	c10.8,4.8,21.7,9.6,32.5,14.4c0.5,0.2,0.9,0.7,0.8,1.2c0,7.4,0.1,14.8,0,22.2c0,2.4-0.2,4.8-0.6,7.2c-1.2,7.6-4.3,14.8-8.9,21
	c-5.6,7.9-13.7,13.7-23,16.5c-1,0.3-2.1,0.3-3.2,0c-8.8-2.6-16.6-8-22.1-15.4C10.6,67.4,7,56.9,7,46L7.1,36.4L7.1,36.4L7.1,36.4z"/>
<path class="st0" d="M41.1,15.5V50H41v33.8c-0.5,0-0.9-0.1-1.3-0.2c-7.7-2.3-14.4-7.2-19.1-13.7c-3.8-5.1-6.4-11.1-7.4-17.4
	c-0.2-1-0.3-2.1-0.4-3.1l0,0c-0.1-0.9-0.1-1.7-0.1-2.6v-18c-0.1-0.5,0.2-0.9,0.7-1.1l27-12C40.6,15.5,40.9,15.5,41.1,15.5z"/>
</svg>
