<?xml version="1.0" encoding="utf-8"?>
<!-- Generator: Adobe Illustrator 23.0.3, SVG Export Plug-In . SVG Version: 6.00 Build 0)  -->
<svg version="1.1" id="Layer_1" xmlns="http://www.w3.org/2000/svg" xmlns:xlink="http://www.w3.org/1999/xlink" x="0px" y="0px"
	 viewBox="0 0 108 129" style="enable-background:new 0 0 108 129;" xml:space="preserve">
<style type="text/css">
	.st0{fill:none;stroke:#015CC8;stroke-width:6;stroke-miterlimit:10;}
	.st1{fill:#015CC8;}
	.st2{fill:none;stroke:#015CC8;stroke-width:6;stroke-linecap:round;stroke-linejoin:round;stroke-miterlimit:10;}
</style>
<path class="st0" d="M65.8,93c8.4-4.3,14.1-13,14.1-23.1c0-5.5-6.2-55.2-6.2-55.2L96.6,4l4.6,11.1l-7.4,3.1
	c6,14.9,11.2,39,11.2,51.8c0,30.9-19.1,56-50,56h-2c-30.9,0-50-25.1-50-56c0-12.7,5.2-36.9,11.2-51.8l-7.4-3.1L11.4,4l22.9,10.7
	c0,0-6.2,49.7-6.2,55.2c0,10.1,5.7,18.8,14.1,23.1"/>
<line class="st0" x1="91.1" y1="19.1" x2="81.3" y2="23.8"/>
<circle class="st1" cx="90.9" cy="73.9" r="6"/>
<circle class="st1" cx="88.9" cy="44.9" r="5"/>
<line class="st0" x1="16.7" y1="19.1" x2="26.5" y2="23.8"/>
<circle class="st1" cx="15.9" cy="73.9" r="6"/>
<circle class="st1" cx="17.9" cy="44.9" r="5"/>
<path class="st2" d="M73.9,106.9c3.9,0,7-3.1,7-7s-3.1-7-7-7c-1.6,0-3.8,0.6-5,1.5l-15,12.5l15,12.5c1.2,0.9,3.4,1.5,5,1.5
	c3.9,0,7-3.1,7-7S77.8,106.9,73.9,106.9z"/>
<path class="st2" d="M33.9,106.9c-3.9,0-7-3.1-7-7s3.1-7,7-7c1.6,0,3.8,0.6,5,1.5l15,12.5l-15,12.5c-1.2,0.9-3.4,1.5-5,1.5
	c-3.9,0-7-3.1-7-7S30,106.9,33.9,106.9z"/>
<path class="st2" d="M53.9,86.9c0-3.9,3.1-7,7-7s7,3.1,7,7c0,1.6-0.6,3.8-1.5,5l-12.5,15l-12.5-15c-0.9-1.2-1.5-3.4-1.5-5
	c0-3.9,3.1-7,7-7S53.9,83,53.9,86.9z"/>
</svg>
