<?xml version="1.0" encoding="utf-8"?>
<!-- Generator: Adobe Illustrator 23.0.3, SVG Export Plug-In . SVG Version: 6.00 Build 0)  -->
<svg version="1.1" id="Layer_1" xmlns="http://www.w3.org/2000/svg" xmlns:xlink="http://www.w3.org/1999/xlink" x="0px" y="0px"
	 viewBox="0 0 82.4 82.5" style="enable-background:new 0 0 82.4 82.5;" xml:space="preserve">
<style type="text/css">
	.st0{fill:#299B59;}
</style>
<path class="st0" d="M78.5,38.5c2.1-2.1,3.3-4.8,3.2-7.7c-0.1-2.9-1.5-5.5-3.9-7.4c-2.3-1.8-5.3-2.8-8.4-2.6
	c-7.3,0.3-11.9,4.5-16.3,8.6c-2.1,1.9-4.2,3.9-6.7,5.5c1.4-2.3,3.1-4.3,4.7-6.4c3.8-4.6,7.7-9.4,7.7-16.7C58.9,5.3,54.2,0,48.5,0
	c-2.8,0-5.5,1.3-7.4,3.5C39.2,1.3,36.5,0,33.7,0C28,0,23.3,5.3,23.3,11.8c0,7.3,3.9,12.1,7.7,16.7c0.8,0.9,1.6,1.9,2.3,2.9
	c-1.3-1.1-2.6-2.3-3.9-3.5c-4.4-4.1-9-8.4-16.3-8.8c-6.5-0.4-12,4.1-12.3,9.9c-0.2,2.9,1,5.6,3.1,7.7C1.6,38.5,0.1,41.2,0,44
	c-0.3,5.8,4.7,10.8,11.2,11.2c7.3,0.4,12.3-3.3,17.1-7c1.9-1.4,3.8-2.8,5.9-4.1C19.1,57.9,13.8,67.3,13.8,79c0,1.1,0.9,2,2,2
	s2-0.9,2-2c0-10.6,5.1-19.3,19.6-32.2c-1.1,2.8-2.7,5.3-4.3,7.8c-3.3,5.2-6.7,10.6-5.5,17.8c0.5,3.1,2,5.8,4.4,7.7
	c2,1.6,4.3,2.4,6.6,2.4c0.5,0,1.1,0,1.6-0.1c3-0.5,5.5-2.2,7.2-4.8c2.4,1.9,5.3,2.8,8.3,2.3c2.9-0.5,5.5-2.1,7.2-4.7
	c1.7-2.5,2.3-5.6,1.8-8.7c-1.1-7.3-6-11.3-10.7-15.2c-2.2-1.8-4.4-3.7-6.3-5.9c2.3,1.3,4.3,2.9,6.3,4.4c4.8,3.7,9.7,7.4,17.1,7.1
	c3.1-0.1,6-1.3,8.1-3.4c2.2-2.1,3.3-4.9,3.2-7.7C82.2,43,80.8,40.3,78.5,38.5z M25.9,45.1c-4.6,3.5-8.6,6.5-14.5,6.2
	c-4.3-0.2-7.6-3.4-7.4-7c0.1-2.4,1.8-4.5,4.3-5.5c0.7-0.3,1.2-1,1.2-1.7s-0.4-1.5-1-1.9c-2.4-1.3-3.8-3.6-3.7-5.9
	c0.2-3.5,3.6-6.2,7.6-6.2c0.2,0,0.3,0,0.5,0c5.9,0.3,9.5,3.7,13.8,7.7c3,2.8,6.1,5.7,10.2,7.7C32.6,40.1,29.1,42.8,25.9,45.1z
	 M34.1,25.9c-3.7-4.4-6.8-8.2-6.8-14.1c0-4.3,2.9-7.8,6.4-7.8c2.3,0,4.4,1.5,5.6,4c0.3,0.7,1,1.2,1.8,1.2s1.5-0.4,1.8-1.2
	c1.1-2.4,3.3-4,5.6-4c3.5,0,6.4,3.5,6.4,7.8c0,5.9-3.2,9.7-6.8,14.2c-2.5,3.1-5.2,6.3-7,10.5c0,0,0,0,0,0.1c0,0,0,0,0-0.1
	C39.3,32.2,36.6,29,34.1,25.9z M51.4,54.4c4.5,3.8,8.4,7,9.3,12.8c0.3,2.1-0.1,4.2-1.2,5.8c-1.1,1.6-2.6,2.7-4.4,2.9
	c-2.5,0.4-5-0.8-6.6-3c-0.4-0.6-1.2-0.9-1.9-0.8c-0.8,0.1-1.4,0.7-1.6,1.4c-0.8,2.6-2.9,4.5-5.4,4.9c-1.8,0.3-3.6-0.2-5.1-1.4
	c-1.6-1.3-2.6-3.1-2.9-5.2c-0.9-5.8,1.8-10.1,4.9-15.1c2.2-3.5,4.6-7.3,5.8-11.9C44.8,48.9,48.3,51.8,51.4,54.4z M76.4,50.7
	C75,52.1,73,52.9,70.9,53c-5.9,0.3-9.9-2.8-14.5-6.3c-3.3-2.5-6.7-5.1-11-6.7c4.2-2,7.3-4.9,10.4-7.7c4.3-3.9,7.9-7.3,13.8-7.6
	c2.1-0.1,4.2,0.5,5.7,1.8c1.5,1.2,2.3,2.8,2.4,4.5c0.1,2.4-1.3,4.6-3.7,5.9c-0.7,0.4-1.1,1.1-1.1,1.9s0.5,1.5,1.2,1.8
	c2.5,1.1,4.1,3.2,4.2,5.5C78.5,47.7,77.8,49.4,76.4,50.7z"/>
</svg>
