<?xml version="1.0" encoding="utf-8"?>
<!-- Generator: Adobe Illustrator 23.0.6, SVG Export Plug-In . SVG Version: 6.00 Build 0)  -->
<svg version="1.1" id="Layer_1" xmlns="http://www.w3.org/2000/svg" xmlns:xlink="http://www.w3.org/1999/xlink" x="0px" y="0px"
	 viewBox="0 0 90 67.8" style="enable-background:new 0 0 90 67.8;" xml:space="preserve">
<style type="text/css">
	.st0{fill:#FFFFFF;}
</style>
<g>
	<path class="st0" d="M76.3,15.1c-0.7,1.8-2.7,2.7-4.5,2c-1.8-0.6-2.7-2.6-2.1-4.4l0.7-2.2l-4.8-1.7V0H49.9l0,2.3
		c-0.1,2.6-2.2,4.7-4.8,4.7c-2.6,0-4.8-2.1-4.8-4.7l0-2.3H24.5v8.7l-4.9,1.8l0.7,2.2c0.6,1.8-0.4,3.8-2.1,4.4
		c-1.8,0.6-3.8-0.3-4.5-2l-0.8-2.2L0,17.5l18.1,50.3l9.6-3.5h12.5l0-2.3c0-0.9,0.3-1.7,0.8-2.5l4-1.5l4.1,1.5
		c0.4,0.7,0.7,1.5,0.7,2.4l0,2.3h12.4l9.6,3.5L90,17.5l-12.9-4.7L76.3,15.1z M24.5,60.5L21,61.7L6.1,20.4l4.3-1.6
		c2.1,2.8,5.9,4,9.4,2.7c2.1-0.8,3.7-2.3,4.6-4.3C24.5,17.3,24.5,60.5,24.5,60.5z M60.9,59.6h-6.6c-1.1-4.1-4.9-7.1-9.2-7.1
		c-4.4,0-8.1,3-9.2,7.1h-6.6V4.8h6.6c1.1,4.1,4.9,7.1,9.2,7.1c4.4,0,8.1-3,9.2-7.1h6.6V59.6z M79.6,18.8l4.3,1.6L69,61.7l-3.4-1.2
		v-43c0.9,1.8,2.5,3.4,4.6,4.1C73.6,22.8,77.4,21.6,79.6,18.8z"/>
	<path class="st0" d="M49.7,26l-4.9-9.4l-4.5,9.6l-10.5,1.7l7.7,7.3l-1.6,10.5l9.3-5.1l9.5,4.8l-2-10.4l7.5-7.5L49.7,26z M50.1,39.1
		l-4.9-2.5l-4.8,2.6l0.8-5.4l-4-3.8l5.4-0.9l2.3-4.9l2.5,4.9l5.4,0.7L49,33.7L50.1,39.1z"/>
</g>
</svg>
