<?xml version="1.0" encoding="utf-8"?>
<!-- Generator: Adobe Illustrator 23.0.6, SVG Export Plug-In . SVG Version: 6.00 Build 0)  -->
<svg version="1.1" id="Layer_1" xmlns="http://www.w3.org/2000/svg" xmlns:xlink="http://www.w3.org/1999/xlink" x="0px" y="0px"
	 viewBox="0 0 45 45" style="enable-background:new 0 0 45 45;" xml:space="preserve">
<style type="text/css">
	.st0{fill:#FFFFFF;}
</style>
<path class="st0" d="M0.4,20.3c-0.2,0.2-0.3,0.4-0.3,0.7c0,0.2,0,0.3,0.1,0.4c0.2,0.4,0.6,0.6,1,0.5l8.9-1.2c0.1,2.1,0.7,6.6,3,9.6
	l-3.1,3.1c-0.4,0.4-0.4,1,0,1.4c0.2,0.2,0.5,0.3,0.7,0.3s0.5-0.1,0.7-0.3l3.1-3.1c3,2.4,7.5,2.9,9.6,3L23,43.8
	c-0.1,0.4,0.2,0.8,0.5,1c0.1,0.1,0.3,0.1,0.4,0.1c0.3,0,0.5-0.1,0.7-0.3L35,34.3c0.2-0.2,0.3-0.4,0.3-0.7l0.5-9.1
	c11.1-13.8,9.1-23.2,9-23.6c-0.1-0.4-0.4-0.7-0.8-0.8C44,0.2,43.2,0,41.9,0c-3.4,0-11.2,1.1-21.4,9.2l-9.1,0.5
	c-0.2,0-0.5,0.1-0.7,0.3L0.4,20.3z M41.3,11.3c-3.9-0.6-7.1-3.7-7.6-7.6c4.7-1.8,8-1.8,9.3-1.7C43.1,3.4,43,6.7,41.3,11.3z
	 M25.4,41.1l0.9-6.7c2.9-2.5,5.3-5,7.4-7.3l-0.3,6.1L25.4,41.1z M31.7,4.5c0.8,4.4,4.3,7.9,8.7,8.8c-2.4,5.3-6.9,12-15.5,19.7
	c-1.3,0-6-0.3-8.9-2.5l8.1-8.1c0.4-0.4,0.4-1,0-1.4s-1-0.4-1.4,0L14.6,29c-2.2-2.9-2.5-7.6-2.5-8.9C19.7,11.4,26.5,6.9,31.7,4.5z
	 M11.9,11.7l6.1-0.3c-2.4,2.1-4.8,4.5-7.4,7.4l-6.7,0.9L11.9,11.7z"/>
<path class="st0" d="M8.5,24.2c-2.2,0.5-4.9,1.7-6.5,4.5c-1.3,2.3-1,4.5-0.7,6.7c0.4,2.4,0.7,4.9-1.2,8.1c-0.2,0.4-0.2,0.9,0.1,1.2
	C0.5,44.9,0.7,45,1,45c0.2,0,0.4,0,0.5-0.2c3.2-2,5.7-1.6,8.1-1.2c2.1,0.3,4.3,0.7,6.7-0.7c2.8-1.6,4-4.3,4.5-6.5
	c-0.6-0.1-1.3-0.3-2-0.4c-0.4,1.8-1.3,4-3.5,5.2c-1.7,1-3.4,0.7-5.4,0.4c-2-0.3-4.2-0.6-6.8,0.2C4,39.3,3.7,37.1,3.4,35
	c-0.3-2-0.6-3.7,0.4-5.4C5,27.5,7.2,26.6,9,26.2C8.8,25.5,8.6,24.8,8.5,24.2z"/>
<path class="st0" d="M30.4,9.6c-1.3,0-2.6,0.5-3.5,1.5c-2,2-2,5.1,0,7.1c0.9,0.9,2.2,1.5,3.5,1.5c1.3,0,2.6-0.5,3.5-1.5
	s1.5-2.2,1.5-3.5c0-1.3-0.5-2.6-1.5-3.5C32.9,10.2,31.7,9.6,30.4,9.6z M28.2,12.5c0.6-0.6,1.3-0.9,2.1-0.9c0.8,0,1.6,0.3,2.1,0.9
	c0.6,0.6,0.9,1.3,0.9,2.1s-0.3,1.6-0.9,2.1c-1.1,1.1-3.1,1.1-4.2,0C27.1,15.6,27.1,13.7,28.2,12.5z"/>
</svg>
