<?xml version="1.0" encoding="utf-8"?>
<!-- Generator: Adobe Illustrator 23.0.6, SVG Export Plug-In . SVG Version: 6.00 Build 0)  -->
<svg version="1.1" id="Layer_1" xmlns="http://www.w3.org/2000/svg" xmlns:xlink="http://www.w3.org/1999/xlink" x="0px" y="0px"
	 viewBox="0 0 60 58" style="enable-background:new 0 0 60 58;" xml:space="preserve">
<style type="text/css">
	.st0{fill:#FFFFFF;}
	.st1{display:none;fill:#FFFFFF;}
</style>
<g>
	<path class="st0" d="M28,40H18c-1.6,0-3,1.3-3,3c0,0.7,0.3,1.5,0.8,2c-1,1.1-1,2.9,0,4c-1.1,1.2-1,3.1,0.2,4.2
		c0.6,0.5,1.3,0.8,2,0.8h1.2c-0.1,0.3-0.2,0.7-0.2,1c0,1.7,1.3,3,3,3h10c0.7,0,1.5-0.3,2-0.8c0.5,0.5,1.3,0.8,2,0.8h10
		c1.7,0,3-1.3,3-3c0-0.3-0.1-0.7-0.2-1H49c1.7,0,3-1.3,3-3s-1.3-3-3-3h-1.2c0.4-1,0.2-2.2-0.6-3c1-1.1,1-2.9,0-4
		c1.1-1.2,1-3.1-0.2-4.2c-0.5-0.5-1.1-0.7-1.8-0.8c3.3-2.9,3.7-8,0.8-11.3s-8-3.7-11.3-0.8s-3.7,8-0.8,11.3c0.2,0.3,0.5,0.5,0.8,0.8
		c-1.6,0.1-2.9,1.6-2.7,3.2c0.1,0.7,0.3,1.3,0.8,1.8c-1,1.1-1,2.9,0,4c-1.1,1.2-1,3.1,0.2,4.2c0.6,0.5,1.3,0.8,2,0.8h1.2
		c-0.2,0.6-0.2,1.4,0,2H36c-0.7,0-1.5,0.3-2,0.8c-0.5-0.5-1.3-0.8-2-0.8h-1.2c0.4-1,0.2-2.2-0.6-3c1-1.1,1-2.9,0-4
		c1.1-1.2,1-3.1-0.2-4.2C29.5,40.3,28.7,40,28,40z M18,42h10c0.6,0,1,0.4,1,1s-0.4,1-1,1H18c-0.6,0-1-0.4-1-1S17.4,42,18,42z M29,47
		c0,0.6-0.4,1-1,1H18c-0.6,0-1-0.4-1-1s0.4-1,1-1h10C28.6,46,29,46.4,29,47z M34,43c0-0.6,0.4-1,1-1h10c0.6,0,1,0.4,1,1s-0.4,1-1,1
		H35C34.4,44,34,43.6,34,43z M34,30c0-3.3,2.7-6,6-6s6,2.7,6,6s-2.7,6-6,6S34,33.3,34,30z M35,38h10c0.6,0,1,0.4,1,1s-0.4,1-1,1H35
		c-0.6,0-1-0.4-1-1S34.4,38,35,38z M34,47c0-0.6,0.4-1,1-1h10c0.6,0,1,0.4,1,1s-0.4,1-1,1H35C34.4,48,34,47.6,34,47z M38,51
		c0-0.6,0.4-1,1-1h10c0.6,0,1,0.4,1,1s-0.4,1-1,1H39C38.4,52,38,51.6,38,51z M36,54h10c0.6,0,1,0.4,1,1s-0.4,1-1,1H36
		c-0.6,0-1-0.4-1-1S35.4,54,36,54z M33,55c0,0.6-0.4,1-1,1H22c-0.6,0-1-0.4-1-1s0.4-1,1-1h10C32.6,54,33,54.4,33,55z M22,52h-4
		c-0.6,0-1-0.4-1-1s0.4-1,1-1h10c0.6,0,1,0.4,1,1s-0.4,1-1,1H22z"/>
	<path class="st0" d="M40,34c2.2,0,4-1.8,4-4s-1.8-4-4-4s-4,1.8-4,4S37.8,34,40,34z M40,28c1.1,0,2,0.9,2,2s-0.9,2-2,2s-2-0.9-2-2
		S38.9,28,40,28z"/>
	<rect x="50.7" y="15.9" transform="matrix(0.9286 -0.3711 0.3711 0.9286 -2.6172 20.4)" class="st1" width="2" height="2.2"/>
	<rect x="55" y="19.7" transform="matrix(0.9284 -0.3715 0.3715 0.9284 -6.3155 22.8029)" class="st1" width="2" height="16.2"/>
	<path class="st0" d="M48,15.8v-3.6L50.7,6c0.9-2-0.1-4.4-2.1-5.2c-1-0.4-2.1-0.4-3,0L40,2.9l-5.6-2.2c-2-0.8-4.3,0.2-5.2,2.2
		c-0.4,1-0.4,2.1,0,3l2.7,6.2v3.6l-8.3,20.8l1.9,0.7L33.7,17h12.6l11.1,27.7c1.7,4.2-0.4,9-4.6,10.7c-1,0.4-2,0.6-3.1,0.6v2
		C55.4,58,60,53.4,60,47.8c0-1.3-0.2-2.6-0.7-3.8L48,15.8z M31,4.4c0-1.1,0.9-2,2-2c0.2,0,0.5,0,0.7,0.1l5.9,2.4
		c0.2,0.1,0.5,0.1,0.7,0l5.9-2.4c1-0.4,2.2,0.1,2.6,1.1C49,3.9,49,4.1,49,4.4s-0.1,0.5-0.2,0.8L46.3,11H33.7l-2.5-5.8
		C31.1,4.9,31,4.7,31,4.4z M34,15v-2h12v2H34z"/>
	<path class="st0" d="M1,58h16v-2H2v-4h12v-2h-3V24h4v14h2V24h3v14h2V24h5v-2H2v-4h26v-2H4v-3.4L24,2.1l2.5,1.3l0.9-1.8l-3-1.6
		c-0.3-0.2-0.6-0.2-0.9,0l-21,11C2.2,11.3,2,11.6,2,12v4H1c-0.6,0-1,0.4-1,1v6c0,0.6,0.4,1,1,1h3v26H1c-0.6,0-1,0.4-1,1v6
		C0,57.6,0.4,58,1,58z M6,24h3v26H6V24z"/>
	<path class="st0" d="M24,6c-2.2,0-4,1.8-4,4s1.8,4,4,4s4-1.8,4-4S26.2,6,24,6z M24,12c-1.1,0-2-0.9-2-2s0.9-2,2-2s2,0.9,2,2
		S25.1,12,24,12z"/>
	<rect x="16" y="9" class="st1" width="2" height="2"/>
</g>
</svg>
