<?xml version="1.0" encoding="utf-8"?>
<!-- Generator: Adobe Illustrator 23.0.6, SVG Export Plug-In . SVG Version: 6.00 Build 0)  -->
<svg version="1.1" id="Layer_1" xmlns="http://www.w3.org/2000/svg" xmlns:xlink="http://www.w3.org/1999/xlink" x="0px" y="0px"
	 viewBox="0 0 992 183" style="enable-background:new 0 0 992 183;" xml:space="preserve">
<style type="text/css">
	.st0{fill:#FFFFFF;}
</style>
<path class="st0" d="M230.5,59.6l-30.5,116.7c-0.8,2.6-3.5,4.6-5.9,4.6h-18.9c-2.7,0-3.6-2-3.1-4.2c0.7-3.8,1.4-7.1,1.4-7.1
	c-13.7,10.1-25.9,13.1-37.2,13.1c-21.6,0-37.2-14.4-34.8-42.2c0.1-1.9,1.3-8.1,2.7-14.4c1.6-7.5,3.6-15.5,5-20.3
	c9.6-36.7,33.9-58.8,71.6-58.8c14.9,0,32.6,2.3,46.3,6.4C230.7,54.3,231.5,55.6,230.5,59.6L230.5,59.6z M174.1,72.4
	c-20.2,0-29,14.2-34.1,33.4l-6.3,24.3c-0.9,3.6-1.4,6.8-1.8,9.7c-1.2,13.3,5.3,17.7,14.6,17.7c9,0,19.1-3.8,30-9.9l19.7-73.7
	C191.8,73,182.4,72.4,174.1,72.4L174.1,72.4z M556.6,51.4c1-3.7-2.4-4.5-3.1-4.5c-9.8,0-22.3,1-36.4,11.2l1.2-4.8
	c0.7-2.6-0.7-4.8-3.5-4.8h-20.4c-2.7,0-5,2.1-5.7,4.8c0,0-26.9,102.2-32.1,121.9c-0.9,3.4,0,5.8,3.5,5.8h21.1c2.7,0,5.4-2.2,6-5
	L512,81.5c16.7-8,27-8.3,34.5-8.3c2.3,0,5.1-2.1,5.7-4.7C552.3,68.5,555.1,57.9,556.6,51.4L556.6,51.4z M988.6,51.6
	c-12.5-3.2-26.6-4.7-40.9-4.7c-22.2,0-49.8,7.2-52.5,38.5c-0.8,11.3,4.4,21.8,12.7,28.1l26.8,19.6c5.4,3.9,7.1,7.8,6.5,11.5
	c-0.7,10.9-9.6,12.9-21,12.9c-5.3,0-26.3-1-37.3-2.4c-4.1-0.4-5.9,3-6.2,3.8l-3.7,14.6c-0.7,2.4,0.7,4.4,3.1,4.9
	c14.2,3.9,34.1,4.5,41.9,4.5c27.7,0,52.8-12.3,55.5-41.8c1-10.3-1.6-19.8-15-29.4L933,92.5c-4.5-3.1-6.3-6.2-6.2-9.5
	c1-9.9,11.8-10.9,18.8-10.9c9.5,0,26,1.1,36.7,2.8c4,0.7,5.4-2.9,6-4.7l3.4-13.2C991.8,57.1,993.1,52.5,988.6,51.6L988.6,51.6z
	 M880.4,111.5c1.7-7.5,2.5-9.5,3.2-16.5c2.2-27.6-10.5-48.1-41.6-48.1c-36,0-60.5,16.2-72.2,60.2c0,0-1.8,6.4-3.5,13.4
	c-1.4,6.4-2.5,13.3-2.6,15.3c-3,35.5,21.3,47.1,42.1,47.1c21,0,31.5-1.1,47.4-4c4.5-0.5,5.3-2.2,6.4-6c0,0,4.5-19.1,4.8-19.6
	c-10.8,1.7-31.3,3.2-48.3,3.2c-17.6,0-23.2-8.5-22.2-21.3c0.1-3.1,1.1-6.3,1.9-9.6h76.3c3.2,0,5.3-2,6.2-5.7
	C878.3,119.8,879.1,116.8,880.4,111.5L880.4,111.5z M835.1,73.5c12.8,0,19.3,7.4,18.2,21c-0.3,3.2-1,6-1.6,8.9h-49.8
	C806.3,86.3,816.3,73.5,835.1,73.5z M786.9,53.4c2.3-2,2.6-5.1-1.5-5.1h-27.9c-2.3,0-3.9,0.7-5.8,2.9l-51,50.5L727.7,0.1h-31.1
	c0,0-32.5,124.6-46.1,175.9c-0.6,2.2,0.7,4.9,3.5,4.9h21.5c2.5,0,5.5-2.2,5.9-4.9l14.6-56l23.8,56c0.9,2.2,2.9,4.8,5.7,4.8h26.5
	c2.1,0,5-1.9,3.4-5.4c-5-11-30.3-63.7-30.3-63.7L786.9,53.4L786.9,53.4z M659.5,93c2.2-24.6-10.8-46.1-42.8-46.1
	c-36.8,0-61.1,19.8-71.4,58.4c0,0-2.9,10.6-4.4,16.3c-1.4,5.1-2.5,10.3-2.8,14c-2.1,24.7,10.7,47.1,42.7,47.1
	c37,0,60.6-19.6,71.2-58.6L657,106C658.4,100.8,659.2,97.1,659.5,93z M609.8,73.5c13.7,0,19.6,7.6,18.3,21.5
	c-0.3,3.1-0.7,6.6-1.8,10.4l-5.2,18.9c-5.9,22.1-16.8,32.1-33.2,32.1c-13.8,0-19.9-7.6-18.9-21.4c0.3-2,0.5-4.4,2.6-12.4
	c1-4.6,4.5-17.1,4.5-17.1C582.5,82.1,595.4,73.5,609.8,73.5L609.8,73.5z M463.5,105.8c1.3-4.9,2-9.5,2.5-14.3
	c2.1-26.6-10.7-44.5-42.9-44.5c-5.6,0-14.1,0.5-22.9,1.4l12.7-48.2h-31c0,0-37.3,142.6-45,171.5c-1.2,4.2,4.5,5.2,5,5.3
	c13.5,3.7,30.6,5.9,45.5,5.9c38.6,0,61.4-19.6,71.5-58.8L463.5,105.8L463.5,105.8z M416.4,72.2c15.4,0,20,7.1,18.7,19.8
	c-0.2,4.3-1,8.6-2.5,13.8l-4.6,18.2c-4.5,17.4-13.8,33.4-34,33.4c-8.5,0-18-0.6-22.1-1.4l21.6-82.3C400.4,73,410.9,72.2,416.4,72.2z
	 M367.1,0.1L335.9,0l-12.6,48.3c-8.3-0.9-16.2-1.4-21.8-1.4c-37.6,0-61,16.2-71.7,58.8c0,0-3.5,13.5-4.6,18.2
	c-2,8.3-2,10.3-2.2,12.9c-2.5,25.9,10.2,45.9,42.7,45.9c15.1,0,33-2.2,48.7-5.9c5.5-1.4,6.9-2.7,8-6.3L367.1,0.1z M294.8,72.2
	c5.5,0,15.5,0.8,21.8,1.6L295.1,156c-4.8,0.8-14.3,1.4-22.7,1.4c-15.3,0-20.2-5.9-19.1-18.9c0.1-2.9,0.7-6.4,2.5-14.6
	c0.9-4.3,4.7-18.2,4.7-18.2C266.3,83,274.6,72.2,294.8,72.2L294.8,72.2z M91.3,174.8c-0.7,3.2-2.3,4-5.8,5
	c-7.6,1.4-38.2,1.4-50.7,1.4c-21.5,0-39.7-15.4-32-44.4C13.2,97.2,38.6,0.1,38.6,0.1H71L35.7,134.9c-0.5,2.8-1,5.5-1.1,7.8
	c-0.9,9.2,3.2,12.2,14.2,12.2h43.2c1.4,0,4.4,1.1,3.4,5.1C93.5,166.4,91.3,174.8,91.3,174.8z"/>
</svg>
