<?xml version="1.0" encoding="utf-8"?>
<!-- Generator: Adobe Illustrator 23.0.3, SVG Export Plug-In . SVG Version: 6.00 Build 0)  -->
<svg version="1.1" id="Layer_1" xmlns="http://www.w3.org/2000/svg" xmlns:xlink="http://www.w3.org/1999/xlink" x="0px" y="0px"
	 viewBox="0 0 71.7 61.3" style="enable-background:new 0 0 71.7 61.3;" xml:space="preserve">
<style type="text/css">
	.st0{fill:#299B59;}
</style>
<path class="st0" d="M16.7,5.3H18c0.3,0,0.6-0.3,0.6-0.6V0.6C18.6,0.3,18.3,0,18,0h-1.5C9.1,0,4.9,3.8,4.9,10.5
	c0,2.1,0.3,4.2,0.6,6.3c0.3,2,0.6,4.2,0.6,6.2c0,2.5-0.7,5-5.5,5C0.3,28,0,28.3,0,28.6v3.8C0,32.8,0.3,33,0.6,33
	c4.9,0,5.5,2.9,5.5,5c0,1.5-0.2,3-0.4,4.6c-0.1,0.5-0.1,0.9-0.2,1.4c-0.5,2.6-0.7,4.5-0.7,6.3c0,7,4.1,10.9,11.5,10.9H18
	c0.3,0,0.6-0.3,0.6-0.6v-4.1c0-0.3-0.3-0.6-0.6-0.6h-1.3c-3.7,0-5.4-1.9-5.4-5.9c0-1.4,0.2-2.9,0.4-4.3l0.1-1.1
	c0.3-1.9,0.6-3.8,0.6-5.9c0.1-4.1-1.5-7-4.4-8.3c3-1.4,4.5-4.1,4.4-8.2c0-2-0.3-3.8-0.6-5.6l-0.2-1.3c-0.2-1.4-0.4-2.8-0.4-4.2
	C11.3,7.2,12.9,5.4,16.7,5.3z"/>
<path class="st0" d="M71.1,28c-4.8,0-5.5-2.5-5.5-5c0-2.1,0.3-4.2,0.6-6.3c0.3-2.1,0.6-4.2,0.6-6.3C66.8,3.8,62.5,0,55.2,0h-1.5
	c-0.3,0-0.6,0.3-0.6,0.6v4.1c0,0.3,0.3,0.6,0.6,0.6H55c3.8,0.1,5.4,1.8,5.4,5.9c0,1.3-0.2,2.7-0.4,4.2l-0.2,1.3
	c-0.3,1.9-0.6,3.6-0.6,5.6c-0.1,4.1,1.4,6.8,4.4,8.2c-2.9,1.3-4.5,4.2-4.4,8.3c0,2.1,0.3,4,0.6,5.9l0.1,1.1c0.2,1.4,0.4,2.9,0.4,4.3
	c0,4-1.7,5.9-5.4,5.9h-1.3c-0.3,0-0.6,0.3-0.6,0.6v4.1c0,0.3,0.3,0.6,0.6,0.6h1.6c7.4,0,11.5-3.9,11.5-10.9c0-2.1-0.3-4.4-0.6-6.3
	v-0.2c-0.3-2-0.6-3.9-0.6-5.8c0-2.2,0.6-5,5.5-5c0.3,0,0.6-0.3,0.6-0.6v-3.8C71.7,28.3,71.4,28,71.1,28z"/>
<path class="st0" d="M24.4,34.1c-1.9,0-3.2-1.5-3.2-3.5s1.4-3.5,3.3-3.5s3.2,1.4,3.2,3.5C27.7,32.6,26.4,34.1,24.4,34.1L24.4,34.1z"
	/>
<path class="st0" d="M35.7,34.1c-1.9,0-3.2-1.5-3.2-3.5s1.4-3.5,3.3-3.5c1.9,0,3.2,1.4,3.2,3.5C39.1,32.6,37.8,34.1,35.7,34.1
	L35.7,34.1z"/>
<path class="st0" d="M47.1,34.1c-1.9,0-3.2-1.5-3.2-3.5s1.4-3.5,3.3-3.5c1.9,0,3.2,1.4,3.2,3.5C50.5,32.6,49.2,34.1,47.1,34.1
	L47.1,34.1z"/>
</svg>
