<?xml version="1.0" encoding="utf-8"?>
<!-- Generator: Adobe Illustrator 23.0.6, SVG Export Plug-In . SVG Version: 6.00 Build 0)  -->
<svg version="1.1" id="Layer_1" xmlns="http://www.w3.org/2000/svg" xmlns:xlink="http://www.w3.org/1999/xlink" x="0px" y="0px"
	 viewBox="0 0 95.2 93.1" style="enable-background:new 0 0 95.2 93.1;" xml:space="preserve">
<style type="text/css">
	.st0{fill:#FFFFFF;}
</style>
<g>
	<path class="st0" d="M58.6,85.3c0-10.6-6.5-20-16.4-23.8l-2.1-0.8l-1.4,1.8l-0.8,0.9c-4.7,4.8-12.4,4.8-17.1,0.1
		c-0.4-0.3-0.7-0.7-1-1.1l-1.4-1.7l-2,0.8C6.5,65.3,0,74.7,0,85.3v7.8h58.6V85.3z M52.6,87.1H6v-1.8c0-7.3,4.2-14.1,10.7-17.4
		c7,6.7,18.1,6.7,25.1,0c6.6,3.3,10.8,10,10.8,17.4V87.1z"/>
	<rect x="47.4" y="16.4" class="st0" width="16" height="6"/>
	<rect x="47.4" y="27.4" class="st0" width="33" height="6"/>
	<path class="st0" d="M95.2,0h-63v27l-2.8-0.3c-9.2,0-16.7,7.4-16.7,16.7s7.4,16.7,16.7,16.7c7.6,0,14.2-5.1,16.2-12.4h5.9v13.7
		L70,47.7h25.2V0z M29.3,54.1c-5.9,0-10.7-4.8-10.7-10.7s4.8-10.7,10.7-10.7c5.9,0,10.7,4.8,10.7,10.7S35.2,54.1,29.3,54.1
		L29.3,54.1z M89.2,41.7H68.1l-10.7,7.8v-7.8H45.9c-0.6-5.1-3.4-9.7-7.8-12.4V6h51L89.2,41.7z"/>
</g>
</svg>
