<?xml version="1.0" encoding="utf-8"?>
<!-- Generator: Adobe Illustrator 23.0.6, SVG Export Plug-In . SVG Version: 6.00 Build 0)  -->
<svg version="1.1" id="Layer_1" xmlns="http://www.w3.org/2000/svg" xmlns:xlink="http://www.w3.org/1999/xlink" x="0px" y="0px"
	 viewBox="0 0 60 60" style="enable-background:new 0 0 60 60;" xml:space="preserve">
<style type="text/css">
	.st0{fill:#FFFFFF;}
</style>
<g>
	<path class="st0" d="M54,10h4v10h-2v-2h-4v-8H0v26h2v4h6.7L5.2,54H0v6h52v-6h-5.2l-3.5-14H50v-4h2v-8h4v-2h4V0h-6V10z M44,34
		c-1.1,0-2-0.9-2-2s0.9-2,2-2s2,0.9,2,2S45.1,34,44,34z M46,27c0-1.1,0.9-2,2-2s2,0.9,2,2s-0.9,2-2,2S46,28.1,46,27z M39,19H14v-2
		h25V19z M28,15v-3h5v3H28z M26,15h-5v-3h5V15z M19,15h-5v-3h5V15z M35,15v-3h4v3H35z M6,12v9h2v-9h4v11h2v-2h5v5h2v-5h5v7h2v-7h5v5
		h2v-5h4v6h2V12h4v10h2V12h3v11.6c-0.6-0.4-1.3-0.6-2-0.6c-2.2,0-4,1.8-4,4c0,0.3,0.1,0.7,0.1,1c0,0-0.1,0-0.1,0c-2.2,0-4,1.8-4,4
		c0,0.7,0.2,1.4,0.6,2h-4.1c0.4-0.6,0.6-1.3,0.6-2c0-2.2-1.8-4-4-4s-4,1.8-4,4c0,0.7,0.2,1.4,0.6,2h-7.1c0.4-0.6,0.6-1.3,0.6-2
		c0-2.2-1.8-4-4-4c-1.2,0-2.3,0.5-3,1.4c-1-1.2-2.6-1.7-4-1.2c0,0,0-0.1,0-0.1c0-2.2-1.8-4-4-4s-4,1.8-4,4c-0.7,0-1.4,0.2-2,0.6V12
		H6z M31,32c0-1.1,0.9-2,2-2s2,0.9,2,2s-0.9,2-2,2S31,33.1,31,32z M2,32c0-1.1,0.9-2,2-2c0.2,0,0.4,0,0.6,0.1
		c0.3,0.5,0.8,0.9,1.3,1.3C6,31.6,6,31.8,6,32c0,1.1-0.9,2-2,2S2,33.1,2,32z M8,30c-1.1,0-2-0.9-2-2s0.9-2,2-2s2,0.9,2,2
		S9.1,30,8,30z M8,32c0.3,0,0.7-0.1,1-0.1c0,0,0,0.1,0,0.1c0,0.7,0.2,1.4,0.6,2H7.4C7.8,33.4,8,32.7,8,32z M11,32c0-1.1,0.9-2,2-2
		s2,0.9,2,2s-0.9,2-2,2S11,33.1,11,32z M17,32c0-1.1,0.9-2,2-2s2,0.9,2,2s-0.9,2-2,2S17,33.1,17,32z M10.8,40h1.9L9.2,54H7.3
		L10.8,40z M25,52c0-1.1,0.9-2,2-2s2,0.9,2,2s-0.9,2-2,2S25,53.1,25,52z M27,48c-2.2,0-4,1.8-4,4c0,0.7,0.2,1.4,0.6,2H11.3l3.5-14
		h22.4l3.5,14H30.4c0.4-0.6,0.6-1.3,0.6-2C31,49.8,29.2,48,27,48z M50,56v2H2v-2H50z M44.7,54h-1.9l-3.5-14h1.9L44.7,54z M48,38H4
		v-2h44V38z M47.4,34c0.6-0.9,0.7-2,0.4-3c0,0,0.1,0,0.1,0c0.7,0,1.4-0.2,2-0.6V34H47.4z M52,26v-6h2v6H52z M58,24h-2v-2h2V24z
		 M56,2h2v6h-2V2z"/>
	<rect x="28" y="42" class="st0" width="2" height="4"/>
	<rect x="23" y="42" class="st0" width="2" height="6"/>
</g>
</svg>
