<?xml version="1.0" encoding="utf-8"?>
<!-- Generator: Adobe Illustrator 25.4.1, SVG Export Plug-In . SVG Version: 6.00 Build 0)  -->
<svg version="1.1" id="Layer_1" xmlns="http://www.w3.org/2000/svg" xmlns:xlink="http://www.w3.org/1999/xlink" x="0px" y="0px"
	 viewBox="0 0 399.3 480" style="enable-background:new 0 0 399.3 480;" xml:space="preserve">
<style type="text/css">
	.st0{fill:#015CC8;}
</style>
<path class="st0" d="M4.6,399.3l39.8,18.4L17.8,451c-2.5,3.2-2.3,7.8,0.6,10.7l16,16c2.9,2.9,7.5,3.1,10.7,0.6l47.3-38.5l12.1,5.6
	c-1,2.9-0.3,6.1,1.9,8.3l16,16c2.3,2.3,5.9,3,8.9,1.7l64.7-28.8c6.9-3.1,11.9-9.2,13.6-16.5l21.9-94.8l46.3-69.5l38.9-26
	c6.3-4.2,11.3-10.1,14.4-17l7.8-17.5l45.8,105.9l14.7-6.4l-51.6-119.4l11.6-26.1c1.7-3.9,0.1-8.5-3.7-10.4l-16-8
	c-3.1-1.5-6.8-0.9-9.2,1.5l-0.9,0.9L271.3,4.8c-1.3-2.9-4.1-4.8-7.3-4.8c0,0,0,0-0.1,0c-3.1,0-6,1.8-7.3,4.7l-40,88
	c-1.8,4,0,8.8,4,10.6c1.9,0.9,4.1,1,6.1,0.2l60-22.5l30.5,70.4L279.7,189c-2.6,2.6-5.8,4.6-9.4,5.8l-6.3,2.1v-40
	c0-11.6-9.4-20.9-20.9-20.9c-3.3,0-6.5,0.8-9.4,2.2l-29.3,14.6c-2.7,1.4-4.4,4.1-4.4,7.2v40c0,0.4,0,0.8,0,1.2l-34,5.7
	c-6,1-11.7,3.4-16.7,6.9l-44.4,31.7c-5.3,3.8-8.9,9.6-9.8,16.1l-6.4,45.1l-28,14l-17.3-8c-4-1.9-8.8-0.1-10.6,3.9c0,0,0,0.1,0,0.1
	l-32,72C-1.1,392.7,0.7,397.4,4.6,399.3z M239.3,81.7l24.5-54l16.7,38.5L239.3,81.7z M40.6,461.2l-5.8-5.8l24.7-30.9l16.8,7.7
	L40.6,461.2z M145.2,291.7l-24.6,30.7l-0.3-1.6l12.6-31.4c0.8-2,2.4-3.6,4.5-4.5l14.1-5.6L145.2,291.7z M126.9,368.9L103.4,383
	l-48.2-20.7l-4.8-28.8L126.9,368.9z M137,403.5l23-18.7l0,19.1l-34,24.3L137,403.5z M194,422.4c-0.6,2.4-2.3,4.5-4.5,5.5l-59.7,26.5
	l-5.4-5.4l45-32.1c4.2-3,6.7-7.9,6.7-13V368c0-4.4-3.6-8-8-8c-1.8,0-3.6,0.6-5,1.8l-11.6,9.5l0,0c1.8-4,0-8.7-4-10.5l-21-9.7
	l-1.6-8.2l29.7-37.1l60.3,26.8L194,422.4z M232,216c-8.8,0-16-7.2-16-16v-16h32v16C248,208.8,240.8,216,232,216z M216,164.9
	l24.8-12.4c2.4-1.2,5.4-0.2,6.6,2.2c0.3,0.7,0.5,1.4,0.5,2.2V168h-32V164.9z M111,263.9c0.3-2.2,1.5-4.1,3.3-5.4l44.4-31.7
	c3-2.1,6.4-3.5,10-4.1l36.1-6c3.6,5.9,9.1,10.5,15.5,13.1l-5.1,10.1l14.3,7.2l7.7-15.4c9.9-1.6,18.4-7.7,23.1-16.6l15.1-5
	c5.9-2,11.2-5.3,15.6-9.7l46.6-46.6l4,2l-25.1,56.5c-1.8,4.2-4.8,7.7-8.6,10.2l-40.3,26.9c-0.9,0.6-1.6,1.3-2.2,2.2L221.1,318
	l-58.2-25.9l12.3-24.5c2-4,0.4-8.8-3.6-10.7c-2-1-4.4-1.1-6.5-0.3L131.4,270c-6.1,2.4-10.9,7.3-13.4,13.4L107.8,309l-3.1-1.5
	L111,263.9z M96,320.9l8.9,4.5l3.5,17.3l-29.1-13.4L96,320.9z M36.5,347.6l3.6,21.7c0.4,2.7,2.2,5,4.7,6l56,24
	c2.4,1,5.1,0.8,7.3-0.5l18.3-11L108,429.3L18.5,388L36.5,347.6z"/>
<rect x="189.4" y="262.8" transform="matrix(0.4472 -0.8944 0.8944 0.4472 -126.9518 336.2785)" class="st0" width="38.4" height="16"/>
</svg>
