<?xml version="1.0" encoding="utf-8"?>
<!-- Generator: Adobe Illustrator 23.0.3, SVG Export Plug-In . SVG Version: 6.00 Build 0)  -->
<svg version="1.1" id="Layer_1" xmlns="http://www.w3.org/2000/svg" xmlns:xlink="http://www.w3.org/1999/xlink" x="0px" y="0px"
	 viewBox="0 0 80.8 87.4" style="enable-background:new 0 0 80.8 87.4;" xml:space="preserve">
<style type="text/css">
	.st0{fill:#403257;}
</style>
<path class="st0" d="M80.4,45.4c-1.3-2.5-5.2-4.1-10.3-2.3c-3.2,1.1-5.9,3.2-8.5,5.3c-1.9,1.5-3.8,3-5.6,3.8
	c-0.2-2.5-1-7.2-3.2-14.7c-1.3-4.5-3.2-9.9-5.3-15.1c0.6-1.9,2.6-8.7,3.9-15.2c0.7-3.9-1.3-6.2-3.2-6.9c-2.4-0.9-5.1,0.2-6.4,2.6
	c-0.5,0.9-1,2-1.4,3c-0.5-1-0.9-1.7-1.3-2.3c-1.7-2.6-4.4-3.8-7-3c-2.4,0.8-3.8,3.1-3.7,5.8c0.2,3.9,2.6,10.1,5.4,17.3
	c0.1,0.3,0.3,0.7,0.4,1c-0.4,1.2-1.3,4.4-2.1,7.6c-1.1-2.1-2.7-3.6-5.6-3.4c-2.5,0.2-4.4,1-5.6,2.6c-0.7,0.9-1.1,2-1.2,3
	c-3,0.7-4.5,2.5-5.2,4c-1.8,3.7-0.7,8.8,1.1,12.2c-2.5,7.5-2.2,19.4,3.8,26.3c1,2.3,1.2,6.3,1.2,7.6c0,0.8,0.7,1.5,1.5,1.5l0,0
	c0.8,0,1.5-0.7,1.5-1.5c0-0.1,0-2.2-0.3-4.5l0.1,0.1c1.7,0.9,3.5,1.3,5.1,1.3c2.2,0,4.2-0.6,5.2-1c2.6,1.4,5.1,2.2,7.6,2.2
	c0.6,0,1.2,0,1.8-0.1c-0.5,1.5-0.6,2.9-0.6,3.2c0,0.8,0.6,1.5,1.4,1.6H44c0.8,0,1.5-0.6,1.5-1.4s0.4-3.2,1.6-4.4
	c5.5-2.3,11.1-8,16.9-17.2c2.5-3.9,12.5-12.6,15-14.3C80.7,49,81.3,47.1,80.4,45.4z M44.4,4.4c0.7-1.3,1.9-1.5,2.8-1.2
	c1.1,0.4,1.6,1.7,1.3,3.5c-0.8,4-1.9,8.2-2.7,11.2c-1.2-3-2.4-5.8-3.5-8.2C42.6,8.6,43.6,6,44.4,4.4z M34,37.7
	c0.4-2.2,1.3-5.5,2.1-8.2c1.1,3,2.1,5.9,2.9,8.7c-1.6,0-3.4,0.2-4.9,0.6c0,0,0,0,0-0.1C34,38.5,34,38.2,33.9,38
	C33.9,37.8,33.9,37.8,34,37.7z M23.3,33.3c0.6-0.8,1.8-1.3,3.4-1.4c0.1,0,0.2,0,0.2,0c2.4,0,3.2,2.8,4.2,7.3c0.4,2,0.9,4.1,1.7,5.8
	c3,6.7,2.8,9.3,2.3,10.2c-0.2,0.4-0.5,0.7-1,0.9c-0.2,0.1-0.4,0.1-0.6,0.1c-2.2,0-5.3-4.6-8-9.2c-1.2-1.9-2.2-7.1-2.7-9.5v-0.2
	C22.6,36.6,22.3,34.6,23.3,33.3z M17.2,39.9c0.5-1.1,1.4-1.8,2.5-2.2c0,0.1,0,0.2,0.1,0.4v0.2c0.8,3.9,1.8,8.3,3.1,10.5
	c1.8,3,3.4,5.4,4.9,7.2c-4.1,1-7.3-2.6-9.3-6C16.9,47.1,15.9,42.6,17.2,39.9z M77.4,47.7c-2.5,1.7-13,10.7-15.8,15.1
	c-6.7,10.4-13,16.1-18.7,16.9c-3.8,0.5-7.7-1.1-11.9-4.8c-0.6-0.6-1.6-0.5-2.1,0.1c-0.6,0.6-0.5,1.6,0.1,2.1
	c0.5,0.5,1.1,0.9,1.6,1.3c-1.6,0.3-3.7,0.3-5.6-0.7c-7.4-4.1-9-15.5-7.1-23.6c2.6,3.3,5.6,4.9,8.7,4.9c1.3,0,2.5-0.3,3.8-0.9
	c1.1,0.8,2.1,1.1,3.3,1.1l0,0c0.5,0,1-0.1,1.6-0.3c1.3-0.4,2.2-1.3,2.8-2.5c1.1-2.6,0.3-6.7-2.4-12.7c-0.3-0.7-0.5-1.4-0.8-2.2
	c2.7-0.7,7-0.5,8.6-0.3c0.8,0.1,1.6-0.5,1.6-1.4s-0.5-1.6-1.4-1.6c-0.2,0-0.8-0.1-1.6-0.1c-1.4-4.8-3.5-10.2-5.5-15.4
	C34,16,31.6,9.8,31.4,6.3c-0.1-1.4,0.5-2.5,1.6-2.8c0.9-0.3,2.4,0,3.6,1.8c0.6,0.9,1.5,2.8,2.6,5.1c0,0,0,0,0,0.1
	c3.3,7.2,8.1,19.4,10.6,27.8c2.4,8.1,3,12.8,3.1,14.8c-3.6,0.8-6.8,1.6-9.5,2.8c-0.8,0.3-1.1,1.2-0.8,2c0.3,0.8,1.2,1.1,2,0.8
	c2.7-1.2,6.2-2,10.2-2.9c3.1-0.7,5.7-2.8,8.5-5c2.4-1.9,4.9-3.8,7.6-4.8c4-1.4,6.2,0,6.7,0.8C77.8,47,77.9,47.3,77.4,47.7z"/>
</svg>
