<?xml version="1.0" encoding="utf-8"?>
<!-- Generator: Adobe Illustrator 23.0.6, SVG Export Plug-In . SVG Version: 6.00 Build 0)  -->
<svg version="1.1" id="Layer_1" xmlns="http://www.w3.org/2000/svg" xmlns:xlink="http://www.w3.org/1999/xlink" x="0px" y="0px"
	 viewBox="0 0 57.5 63.4" style="enable-background:new 0 0 57.5 63.4;" xml:space="preserve">
<style type="text/css">
	.st0{fill:#FFFFFF;}
</style>
<g>
	<path class="st0" d="M28.7,23c-3.2,0-5.8,2.6-5.8,5.8c0,1.4,0.5,2.6,1.3,3.6c0.7,0.8,1.6,1.5,2.6,1.8c0.6,0.2,1.2,0.3,1.8,0.3
		c0.6,0,1.3-0.1,1.8-0.3c1-0.4,2-1,2.6-1.8c0.8-1,1.3-2.2,1.3-3.6C34.5,25.6,31.9,23,28.7,23z M28.8,31.7
		C28.8,31.7,28.8,31.7,28.8,31.7l-0.1,0c-1.2,0-2.2-0.8-2.7-1.8c-0.1-0.4-0.2-0.7-0.2-1.1c0-1.6,1.3-3,2.9-3c1.6,0,3,1.3,3,3
		c0,0.4-0.1,0.8-0.2,1.1C31.1,30.9,30,31.7,28.8,31.7z"/>
	<rect x="2.7" y="60.3" class="st0" width="8.3" height="3.1"/>
	<rect x="46.6" y="60.3" class="st0" width="8.3" height="3.1"/>
	<path class="st0" d="M28.7,31.7l-1.8,2.5L7.1,62.8l-2.6-1.8l19.8-28.5l1.7-2.5C26.5,30.9,27.5,31.7,28.7,31.7z"/>
	<path class="st0" d="M53,60.9l-2.6,1.8L30.6,34.2l-1.8-2.5c1.2,0,2.2-0.8,2.7-1.8l1.7,2.5L53,60.9z"/>
	<g>
		<path class="st0" d="M31.7,33.7c-0.3,0.2-0.7,0.4-1.1,0.5l0,0l3.2,4.7L31.7,33.7z"/>
		<polygon class="st0" points="46.6,51.6 44.7,48.9 42.4,51.2 44.3,53.9 		"/>
	</g>
	<g>
		<path class="st0" d="M32.9,37.6l1.9,2.8C34.7,39.1,34,38.1,32.9,37.6z"/>
		<path class="st0" d="M39.7,47.4c0-0.1,0-0.2,0-0.3c0-1.2,0.9-2.2,2.1-2.4L41,43.5c-0.4,0.6-1.1,1-1.9,1c-1.3,0-2.4-1.1-2.4-2.4
			c0-1.1,0.7-2,1.7-2.3l-0.6-0.9c-1.1,0.5-1.9,1.5-2.1,2.7l2.7,3.9c0.2,0.1,0.5,0.1,0.7,0.1c0,0,0.1,0,0.1,0
			c-0.1,0.2-0.2,0.4-0.3,0.7L39.7,47.4z"/>
		<path class="st0" d="M44.9,49.2l-0.6-0.9c-0.4,0.8-1.2,1.3-2.1,1.3c-0.4,0-0.8-0.1-1.1-0.3l0.9,1.2c0.1,0,0.2,0,0.2,0
			C43.3,50.6,44.3,50,44.9,49.2z"/>
		<path class="st0" d="M42.3,43.7l0.8,1.2c0.8,0.4,1.4,1.1,1.4,2.1l0.8,1.2c0.1-0.3,0.2-0.7,0.2-1c0-0.4-0.1-0.7-0.2-1.1
			c0.3,0.1,0.6,0.2,1,0.2c1.9,0,3.4-1.5,3.4-3.4c0-1.9-1.5-3.4-3.4-3.4c-1.9,0-3.4,1.5-3.4,3.4c0,0.4,0.1,0.7,0.2,1.1
			C42.9,43.8,42.6,43.7,42.3,43.7z M46.4,40.4c1.3,0,2.4,1.1,2.4,2.4c0,1.3-1.1,2.4-2.4,2.4c-1.3,0-2.4-1.1-2.4-2.4
			C44,41.5,45.1,40.4,46.4,40.4z"/>
		<path class="st0" d="M39.5,39.6c1.1,0.2,2,1.2,2,2.4c0,0.1,0,0.3,0,0.4l0.7,1c0.2-0.4,0.3-0.9,0.3-1.4c0-1.9-1.5-3.4-3.4-3.4
			c-0.1,0-0.2,0-0.3,0L39.5,39.6z"/>
	</g>
	<g>
		<path class="st0" d="M16.3,48.3c-1,0-1.8-0.6-2.2-1.4l-0.6,0.9c0.6,0.9,1.6,1.5,2.8,1.5c0,0,0.1,0,0.1,0l0.8-1.2
			C17,48.3,16.7,48.3,16.3,48.3z"/>
		<path class="st0" d="M19.4,44.3c-0.3-0.6-0.8-1.1-1.4-1.4c1.1-0.6,1.9-1.7,1.9-3.1c0-0.3,0-0.6-0.1-0.9l-0.9,1.3
			c-0.1,0.7-0.5,1.2-1.1,1.6l-1.1,1.6c1.2,0.1,2.2,1.2,2.2,2.4c0,0,0,0.1,0,0.1l2.2-3.2C20.3,43,19.7,43.6,19.4,44.3z"/>
		<path class="st0" d="M11.1,46.3c0.7,0,1.3-0.2,1.8-0.5c0,0,0,0.1,0,0.1c0,0.3,0.1,0.6,0.1,0.9l0.9-1.3c0.1-0.8,0.6-1.4,1.2-1.8
			l1.1-1.6C15,42.1,14,41.1,14,39.8c0-1.3,1.1-2.4,2.4-2.4c1,0,1.8,0.6,2.2,1.4l0.6-0.9c-0.6-0.9-1.7-1.5-2.8-1.5
			c-1.9,0-3.4,1.5-3.4,3.4c0,0.1,0,0.1,0,0.2c-0.5-0.3-1.2-0.6-1.9-0.6c-1.9,0-3.4,1.5-3.4,3.4C7.7,44.7,9.2,46.3,11.1,46.3z
			 M14.8,42.8c-0.1,0-0.2,0.1-0.3,0.1c0,0,0-0.1,0-0.1c0-0.1,0-0.1,0-0.2C14.6,42.7,14.7,42.8,14.8,42.8z M11.1,40.4
			c1.3,0,2.4,1.1,2.4,2.4c0,1.3-1.1,2.4-2.4,2.4s-2.4-1.1-2.4-2.4C8.7,41.5,9.8,40.4,11.1,40.4z"/>
		<path class="st0" d="M40.9,50.8l-2.1-3c0,0.1,0,0.2,0.1,0.2c-0.4-0.2-0.9-0.3-1.4-0.3c0,0-0.1,0-0.1,0c0.3-0.4,0.4-0.8,0.5-1.3
			l-2.7-3.9c-0.2,0-0.5-0.1-0.7-0.1c0,0-0.1,0-0.1,0c0.1-0.2,0.2-0.4,0.3-0.6l-0.8-1.1c0,1.3-1.1,2.4-2.4,2.4
			c-1.3,0-2.4-1.1-2.4-2.4c0-1.3,1.1-2.4,2.4-2.4c0.3,0,0.6,0.1,0.8,0.2l-0.8-1.2c0,0,0,0,0,0c-1.9,0-3.4,1.5-3.4,3.4
			c0,0.7,0.2,1.3,0.5,1.8c0,0-0.1,0-0.1,0c-1.3,0-2.4,0.7-3,1.8c-0.6-1.1-1.7-1.8-3-1.8l-0.8,1.1c0.2-0.1,0.5-0.1,0.7-0.1
			c1.3,0,2.4,1.1,2.4,2.4c0,1.3-1.1,2.4-2.4,2.4c-1.3,0-2.4-1-2.4-2.3l-4,5.7c0.3,1.6,1.7,2.9,3.4,2.9c1.3,0,2.4-0.7,3-1.8
			c0.6,1.1,1.7,1.8,3,1.8c1.3,0,2.4-0.7,3-1.8c0.6,1.1,1.7,1.8,3,1.8c1.3,0,2.4-0.7,3-1.8c0.6,1.1,1.7,1.8,3,1.8
			c1.9,0,3.4-1.5,3.4-3.4C40.9,51,40.9,50.9,40.9,50.8z M19.4,47.5c0,0.1,0.1,0.2,0.1,0.2c0,0-0.1,0-0.1,0c0,0-0.1,0-0.1,0
			C19.3,47.7,19.3,47.6,19.4,47.5z M19.4,53.6c-1.3,0-2.4-1.1-2.4-2.4c0-1.3,1.1-2.4,2.4-2.4c1.3,0,2.4,1.1,2.4,2.4
			C21.8,52.5,20.7,53.6,19.4,53.6z M22.4,49.6c0-0.1-0.1-0.2-0.1-0.2c0,0,0.1,0,0.1,0c0,0,0.1,0,0.1,0
			C22.5,49.4,22.4,49.5,22.4,49.6z M31.4,44.1C31.5,44.1,31.5,44.1,31.4,44.1c0.1,0,0,0.1,0,0.2C31.4,44.2,31.4,44.1,31.4,44.1
			C31.4,44.1,31.4,44.1,31.4,44.1z M31.4,47.5c0,0.1,0.1,0.2,0.1,0.2c0,0-0.1,0-0.1,0c0,0-0.1,0-0.1,0
			C31.3,47.7,31.4,47.6,31.4,47.5z M25.4,47.5c0,0.1,0.1,0.2,0.1,0.2c0,0-0.1,0-0.1,0c0,0-0.1,0-0.1,0
			C25.3,47.7,25.3,47.6,25.4,47.5z M25.4,53.6c-1.3,0-2.4-1.1-2.4-2.4c0-1.3,1.1-2.4,2.4-2.4c1.3,0,2.4,1.1,2.4,2.4
			C27.8,52.5,26.7,53.6,25.4,53.6z M28.4,49.6c0-0.1-0.1-0.2-0.1-0.2c0,0,0.1,0,0.1,0c0,0,0.1,0,0.1,0
			C28.5,49.4,28.5,49.5,28.4,49.6z M28.4,48.3c-1.3,0-2.4-1.1-2.4-2.4s1.1-2.4,2.4-2.4c1.3,0,2.4,1.1,2.4,2.4S29.8,48.3,28.4,48.3z
			 M31.4,53.6c-1.3,0-2.4-1.1-2.4-2.4c0-1.3,1.1-2.4,2.4-2.4s2.4,1.1,2.4,2.4C33.9,52.5,32.8,53.6,31.4,53.6z M34.4,49.6
			c0-0.1-0.1-0.2-0.1-0.2c0,0,0.1,0,0.1,0c0,0,0.1,0,0.1,0C34.5,49.4,34.5,49.5,34.4,49.6z M34.4,48.3c-1.3,0-2.4-1.1-2.4-2.4
			c0-1.3,1.1-2.4,2.4-2.4c1.3,0,2.4,1.1,2.4,2.4C36.9,47.2,35.8,48.3,34.4,48.3z M37.5,53.6c-1.3,0-2.4-1.1-2.4-2.4
			c0-1.3,1.1-2.4,2.4-2.4c1.3,0,2.4,1.1,2.4,2.4C39.9,52.5,38.8,53.6,37.5,53.6z"/>
	</g>
	<g>
		<path class="st0" d="M26.9,34.2L26.9,34.2c-0.4-0.1-0.7-0.3-1.1-0.5l-2.1,5.2L26.9,34.2z"/>
		<polygon class="st0" points="13.3,53.9 15.1,51.2 12.8,48.9 10.9,51.6 		"/>
		<path class="st0" d="M40.7,0H16.8L0,16.8v23.8l10.2,10.2l1.9-2.7l-8.2-8.2l19.6-8.1l0,0l0.2-0.3c-0.2-0.4-0.4-0.8-0.5-1.3l-20,8.3
			V19l20,8.3c0.1-0.5,0.3-1,0.6-1.5l-20-8.3L17.6,3.8l8.3,20c0.5-0.3,1-0.5,1.5-0.6l-8.3-20h19.4l-8.3,20c0.5,0.1,1,0.3,1.5,0.6
			l8.3-20l13.7,13.7l-20,8.3c0.3,0.5,0.5,1,0.6,1.5l20-8.3v19.4l-20-8.3c-0.1,0.5-0.3,0.9-0.5,1.3l0.2,0.3l0,0l19.6,8.1l-8.2,8.2
			l1.9,2.7l10.2-10.2V16.8L40.7,0z"/>
		<polygon class="st0" points="39.9,53.7 35.6,43.2 31.3,37 38.5,54.3 19,54.3 26.2,37 21.9,43.2 17.6,53.7 15.8,51.9 14,54.6 
			16.8,57.5 40.7,57.5 43.5,54.6 41.7,51.9 		"/>
	</g>
</g>
</svg>
