<?xml version="1.0" encoding="utf-8"?>
<!-- Generator: Adobe Illustrator 23.0.3, SVG Export Plug-In . SVG Version: 6.00 Build 0)  -->
<svg version="1.1" id="Layer_1" xmlns="http://www.w3.org/2000/svg" xmlns:xlink="http://www.w3.org/1999/xlink" x="0px" y="0px"
	 viewBox="0 0 92 93.5" style="enable-background:new 0 0 92 93.5;" xml:space="preserve">
<style type="text/css">
	.st0{fill:#FFFFFF;}
</style>
<title>Artboard 9</title>
<path class="st0" d="M8.8,93.5h74.4c4.9,0,8.8-4,8.8-8.8V37.4c0-0.7-0.3-1.4-0.9-1.9L78.8,25.1V7c0-3.9-3.1-7-7-7H20.7
	c-3.9,0-7,3.1-7,7v17.8L0.9,35.5C0.3,36,0,36.7,0,37.4v47.2C0,89.5,3.9,93.5,8.8,93.5z M83.2,88.5H8.8c-2.1,0-3.8-1.7-3.8-3.8V42.2
	l28.5,20.2L13.3,77.8c-1.1,0.8-1.3,2.4-0.5,3.5s2.4,1.3,3.5,0.5l21.5-16.5l7,5c0.9,0.6,2,0.6,2.9,0l7-5l21.5,16.4
	c1.1,0.8,2.7,0.6,3.5-0.5s0.6-2.7-0.5-3.5L59,62.4l28-19.8v42.1C87,86.8,85.3,88.5,83.2,88.5L83.2,88.5z M85.6,37.4l-6.8,4.8V31.7
	L85.6,37.4z M20.7,5h51.1c1.1,0,2,0.9,2,2v38.7L46.3,65.3L18.7,45.8V7C18.7,5.9,19.6,5,20.7,5z M13.7,42.2l-7.1-5l7.1-6V42.2z
	 M46,52.4h0.6c1.4,0,2.5-1.1,2.5-2.5s-1.1-2.5-2.5-2.5H46c-8.8,0-15.9-7.1-15.9-15.9S37.2,15.6,46,15.6s15.9,7.1,15.9,15.9v4.3
	c-0.1,1.5-1.4,2.7-3,2.6c-1.4-0.1-2.5-1.2-2.6-2.6v-4.3C56.4,25.7,51.8,21,46,21s-10.4,4.6-10.5,10.3s4.6,10.4,10.3,10.5
	c2.3,0,4.6-0.8,6.5-2.2c2.1,3.8,6.8,5.1,10.6,3c2.5-1.4,4-4,4-6.9v-4.3c0-11.6-9.4-20.9-20.9-20.9s-20.9,9.4-20.9,20.9
	C25.1,43,34.4,52.4,46,52.4z M46,36.8c-3,0-5.4-2.4-5.4-5.4S43,26,46,26s5.4,2.4,5.4,5.4l0,0C51.4,34.4,49,36.8,46,36.8z"/>
</svg>
