<svg xmlns="http://www.w3.org/2000/svg" width="197.716" height="124.4" viewBox="0 0 197.716 124.4">
  <defs>
    <style>
      .cls-1 {
        fill: #299b59;
        fill-rule: evenodd;
      }
    </style>
  </defs>
  <path id="_2x" data-name="2x" class="cls-1" d="M1035.92,1474.09v-22.82H990.515l28.805-32.45q2.535-2.865,5.08-6.34a61.9,61.9,0,0,0,4.66-7.43,43.668,43.668,0,0,0,3.39-8.37,32.953,32.953,0,0,0,1.27-9.13q0-17.745-12.03-27.8t-35.241-10.05a106.251,106.251,0,0,0-18.89,1.69,87.5,87.5,0,0,0-17.365,4.9l7.624,21.63a77.005,77.005,0,0,1,12.791-3.8,64.676,64.676,0,0,1,13.3-1.44q9.823,0,15.078,4.73a15.266,15.266,0,0,1,5.254,11.83,20.109,20.109,0,0,1-2.2,9.22,50.436,50.436,0,0,1-5.426,8.36L944.1,1474.09h91.825Zm105.88,0-30.83-47.15,28.29-43.95h-31.34l-14.23,26.37h-0.34l-14.06-26.37h-31.51l28.46,43.95-31.01,47.15h32.02l16.1-28.56h0.34l16.09,28.56h32.02Z" transform="translate(-944.094 -1349.69)"/>
</svg>
