<?xml version="1.0" encoding="utf-8"?>
<!-- Generator: Adobe Illustrator 23.0.6, SVG Export Plug-In . SVG Version: 6.00 Build 0)  -->
<svg version="1.1" id="Layer_1" xmlns="http://www.w3.org/2000/svg" xmlns:xlink="http://www.w3.org/1999/xlink" x="0px" y="0px"
	 viewBox="0 0 488.1 173.4" style="enable-background:new 0 0 488.1 173.4;" xml:space="preserve">
<style type="text/css">
	.st0{opacity:0.95;fill:#3AAA35;enable-background:new    ;}
	.st1{fill:#3AAA35;}
	.st2{opacity:0.55;fill:#3AAA35;enable-background:new    ;}
	.st3{opacity:0.65;fill:#3AAA35;enable-background:new    ;}
	.st4{opacity:0.85;fill:#3AAA35;enable-background:new    ;}
	.st5{opacity:0.75;fill:#3AAA35;enable-background:new    ;}
	.st6{fill:#FFFFFF;}
</style>
<title>Unibet-Logo-black</title>
<path class="st0" d="M321.6,122.9c-13.9-0.1-25.4,11-25.5,25c-0.1,13.9,11,25.4,25,25.5c13.9,0.1,25.4-11,25.5-25c0-0.1,0-0.2,0-0.3
	C346.6,134.3,335.4,123,321.6,122.9C321.6,122.9,321.6,122.9,321.6,122.9z"/>
<path class="st1" d="M373.2,122.9c-13.9-0.1-25.4,11-25.5,25c-0.1,13.9,11,25.4,25,25.5c14,0.1,25.4-11,25.5-25c0-0.1,0-0.2,0-0.3
	C398.3,134.3,387.1,123,373.2,122.9z"/>
<path class="st2" d="M114.9,122.9c-13.9-0.1-25.4,11-25.5,25c-0.1,13.9,11,25.4,25,25.5c13.9,0.1,25.4-11,25.5-25c0-0.1,0-0.2,0-0.3
	C140,134.3,128.8,123,114.9,122.9z"/>
<path class="st3" d="M166.6,122.9c-13.9-0.1-25.4,11-25.5,25c-0.1,13.9,11,25.4,25,25.5c13.9,0.1,25.4-11,25.5-25c0-0.1,0-0.2,0-0.3
	C191.6,134.3,180.4,123,166.6,122.9z"/>
<path class="st4" d="M269.9,122.9c-13.9-0.1-25.4,11-25.5,25c-0.1,13.9,11,25.4,25,25.5c13.9,0.1,25.4-11,25.5-25c0-0.1,0-0.2,0-0.3
	C295,134.3,283.8,123,269.9,122.9z"/>
<path class="st5" d="M218.1,122.9c-13.9-0.1-25.4,11-25.5,25c-0.1,13.9,11,25.4,25,25.5c13.9,0.1,25.4-11,25.5-25c0-0.1,0-0.1,0-0.2
	C243.2,134.3,232,123,218.1,122.9C218.1,122.9,218.1,122.9,218.1,122.9z"/>
<path class="st6" d="M397.6,75h-43.4V58.2h23.2l0,0c0.5,0,1-0.2,1.4-0.6c0.4-0.4,0.6-0.9,0.6-1.4V38.2c0-1.1-0.9-1.9-1.9-1.9h-23.2
	V22H395l0,0c1.1,0,1.9-0.9,1.9-1.9V2c0-0.5-0.2-1-0.6-1.4c-0.4-0.4-0.9-0.6-1.4-0.6l-64.9,0l0,0c-1.1,0-1.9,0.9-1.9,1.9L328.1,95
	c0,1.1,0.9,1.9,1.9,1.9l67.5,0.1l0,0c1.1,0,1.9-0.9,1.9-1.9V77C399.5,75.9,398.6,75,397.6,75z"/>
<path class="st6" d="M171.5,0h-21.9c-1.1,0-1.9,0.9-1.9,1.9v48.6L126.5,1.2c-0.3-0.7-1-1.2-1.8-1.2H96.7c-1.1,0-1.9,0.9-1.9,1.9
	v93.1c0,1.1,0.9,1.9,1.9,1.9h22.2c1.1,0,1.9-0.9,1.9-1.9V40l24.5,55.8c0.3,0.7,1,1.2,1.8,1.1h24.5l0,0c1.1,0,1.9-0.9,1.9-1.9V1.9
	C173.5,0.9,172.6,0,171.5,0z"/>
<path class="st6" d="M75.8,0H51.2c-0.2,0-0.5,0.1-0.7,0.3c-0.2,0.2-0.3,0.4-0.3,0.7v59.8c-0.2,6.6-5.7,11.7-12.2,11.6
	c-6.3-0.2-11.4-5.2-11.6-11.6V11.7l0,0V0.9c0-0.5-0.4-0.9-0.9-0.9H0.9C0.7,0,0.4,0.1,0.3,0.3C0.1,0.5,0,0.7,0,0.9v59.8
	c0.3,21.2,17.8,38.1,39,37.7c20.7-0.3,37.4-17,37.7-37.7V8.2l0,0V0.9C76.7,0.4,76.3,0,75.8,0C75.8,0,75.8,0,75.8,0z"/>
<path class="st6" d="M217.5,2c0-1.1-0.9-1.9-1.9-1.9h-22.2l0,0c-1.1,0-1.9,0.9-1.9,1.9V95c0,1.1,0.9,1.9,1.9,1.9h22.2l0,0
	c1.1,0,1.9-0.9,1.9-1.9L217.5,2z"/>
<path class="st6" d="M303.2,44.5c10.4-9.7,11-25.9,1.3-36.3C299.6,3,292.8,0,285.6,0c-0.2,0-0.4,0-0.6,0H273l0,0h-35.5l0,0
	c-1.1,0-1.9,0.9-1.9,1.9l0,93.1c0,1.1,0.9,1.9,1.9,1.9h47.7c16.2,0,29.3-13.1,29.3-29.3C314.5,58.6,310.3,50,303.2,44.5L303.2,44.5z
	 M261,19.4h19.4c3.8,0,6.9,3.1,6.9,6.9c0,3.8-3.1,6.9-6.9,6.9c0,0,0,0,0,0H261V19.4z M280.1,73.8H261V53.6h19.1
	c5.6,0.2,10,4.8,9.8,10.4C289.7,69.4,285.4,73.7,280.1,73.8L280.1,73.8z"/>
<path class="st6" d="M487.6,0.7c-0.4-0.4-0.8-0.6-1.4-0.6L413.4,0l0,0c-1.1,0-1.9,0.9-1.9,1.9v18c0,1.1,0.8,1.9,1.9,1.9c0,0,0,0,0,0
	l22.8,0.1L436.1,95c0,0.5,0.2,1,0.6,1.4c0.4,0.4,0.8,0.6,1.4,0.6h23l0,0c1.1,0,1.9-0.9,1.9-1.9c0,0,0,0,0,0l0.1-73.1h23.1l0,0
	c1.1,0,1.9-0.8,1.9-1.9c0,0,0,0,0,0V2C488.1,1.5,487.9,1.1,487.6,0.7z"/>
</svg>
