<?xml version="1.0" encoding="utf-8"?>
<!-- Generator: Adobe Illustrator 24.0.1, SVG Export Plug-In . SVG Version: 6.00 Build 0)  -->
<svg version="1.1" id="Layer_1" xmlns="http://www.w3.org/2000/svg" xmlns:xlink="http://www.w3.org/1999/xlink" x="0px" y="0px"
	 viewBox="0 0 88.5 51.8" style="enable-background:new 0 0 88.5 51.8;" xml:space="preserve">
<style type="text/css">
	.st0{fill:#FFFFFF;}
</style>
<g>
	<g>
		<rect y="6.8" class="st0" width="13.7" height="28.3"/>
		<g>
			<g>
				<path class="st0" d="M44.9,18.3c-2.2-1.5-4.9-2.8-8-2.8c-4.1,0-7.4,2.4-7.4,5.5c0,3.1,3.5,5.5,7.6,5.5c3.1,0,5.6-1,7.8-2.6
					l-0.4,10.6c-2.2,0.8-7.3,1.1-9.7,1.1c-10.7,0-19.1-6.3-19.1-14.3c0-8.2,8.6-14.8,19.7-14.8c3.1,0,6.3,0.4,9.2,1.2L44.9,18.3z"/>
				<polygon class="st0" points="61.4,27.4 61.4,24.6 71.9,24.6 71.9,17.3 61.4,17.3 61.4,14.6 72.9,14.6 72.9,6.8 47.5,6.8 
					47.5,35.1 73.3,35.1 73.3,27.4 				"/>
			</g>
		</g>
	</g>
	<g>
		<g>
			<path class="st0" d="M81.7,0.8c3.4,0,6.1,2.7,6.1,6.1c0,3.4-2.7,6.1-6.1,6.1c-3.4,0-6.1-2.7-6.1-6.1C75.6,3.5,78.3,0.8,81.7,0.8
				 M81.7,0c-3.8,0-6.8,3.1-6.8,6.8c0,3.8,3.1,6.8,6.8,6.8c3.8,0,6.8-3.1,6.8-6.8C88.5,3.1,85.5,0,81.7,0L81.7,0z"/>
		</g>
		<path class="st0" d="M82.5,9.1c-0.3,0.3-0.7,0.4-1.2,0.4C80.6,9.5,80,9,80,8.4c0-0.4,0.3-0.7,0.8-1.1L82.5,9.1z M81.3,5.9
			c-0.1-0.1-0.1-0.1-0.1-0.1c-0.4-0.4-0.5-0.6-0.5-0.9c0-0.4,0.3-0.7,0.7-0.7c0.4,0,0.7,0.3,0.7,0.6C82.1,5.2,81.9,5.5,81.3,5.9
			 M85.2,6.3h-1.5c0,0.6-0.1,1-0.4,1.6l-1.2-1.3c0,0,0.1-0.1,0.1-0.1l0.4-0.3c0.5-0.4,0.8-1,0.8-1.6c0-1-0.9-1.7-2.1-1.7
			c-1.3,0-2.2,0.8-2.2,1.8c0,0.6,0.2,1.1,0.7,1.6c-1.1,0.7-1.4,1.3-1.4,2.1c0,1.3,1.1,2.2,2.8,2.2c0.9,0,1.5-0.2,2.1-0.7l0.5,0.6
			h1.9L84.4,9C84.9,8.4,85.1,7.5,85.2,6.3"/>
	</g>
</g>
<g>
	<path class="st0" d="M10.6,41.8h2.9v7.3h4.3v2.4h-7.2V41.8z"/>
	<path class="st0" d="M27.6,46.7c0,3.1-1.9,5.1-4.9,5.1c-3,0-4.9-1.9-4.9-5.1c0-3.2,1.9-5.2,4.9-5.2C25.6,41.5,27.6,43.6,27.6,46.7z
		 M20.8,46.7c0,1.7,0.7,2.7,1.8,2.7c1.2,0,1.9-1,1.9-2.8c0-1.7-0.7-2.7-1.8-2.7C21.5,43.9,20.8,44.9,20.8,46.7z"/>
	<path class="st0" d="M36.9,51.6H33l-2.4-6.1v6.1h-2.5v-9.8H32l2.4,5.9v-5.9h2.5V51.6z"/>
	<path class="st0" d="M37.6,41.8h4.2c3,0,4.8,1.8,4.8,4.9c0,1.5-0.5,2.8-1.4,3.7c-0.9,0.9-2,1.2-3.7,1.2h-3.9V41.8z M41.1,49.1
		c1.6,0,2.4-0.8,2.4-2.4c0-1.7-0.8-2.5-2.4-2.5h-0.7v4.9H41.1z"/>
	<path class="st0" d="M56.7,46.7c0,3.1-1.9,5.1-4.9,5.1c-3,0-4.9-1.9-4.9-5.1c0-3.2,1.9-5.2,4.9-5.2C54.7,41.5,56.7,43.6,56.7,46.7z
		 M49.9,46.7c0,1.7,0.7,2.7,1.8,2.7c1.2,0,1.9-1,1.9-2.8c0-1.7-0.7-2.7-1.8-2.7C50.6,43.9,49.9,44.9,49.9,46.7z"/>
	<path class="st0" d="M66,51.6h-3.9l-2.4-6.1v6.1h-2.5v-9.8h3.9l2.4,5.9v-5.9H66V51.6z"/>
</g>
</svg>
