<svg xmlns="http://www.w3.org/2000/svg" width="3001" height="1531" viewBox="0 0 3001 1531">
  <defs>
    <style>
      .cls-1, .cls-2, .cls-3, .cls-4 {
        fill-rule: evenodd;
      }

      .cls-2 {
        fill: #38aa34;
      }

      .cls-3 {
        fill: #d60651;
      }

      .cls-4 {
        fill: #4491eb;
      }
    </style>
  </defs>
  <path id="Solutions" class="cls-1" d="M6.02,1487.02c13.2,13.2,54.53,44.2,129.15,44.2,84.378,0,135.465-59.7,135.465-118.82,0-78.06-71.177-113.08-115.949-130.87-45.346-18.37-62.566-34.44-62.566-55.68,0-15.5,15.5-29.28,36.162-29.28,35.014,0,76.916,31.57,82.082,34.44,5.166,4.02,15.5-1.14,19.516-7.46l29.274-44.2c2.3-4.01,3.445-14.35-3.444-18.36-17.22-12.63-63.14-43.05-122.836-43.05-88.4,0-132.594,57.4-132.594,114.22,0,68.88,61.992,107.34,111.356,126.86,39.032,15.5,59.122,33.86,59.122,57.97,0,20.09-16.646,34.44-39.606,34.44-37.884,0-79.212-30.42-81.508-31.57-4.018-2.87-14.924-4.02-19.516,3.45L3.15,1470.95C-1.442,1478.98.28,1481.28,6.02,1487.02ZM297.2,1325.15c0,114.8,91.266,206.07,206.066,206.07s206.641-91.27,206.641-206.07-91.84-207.21-206.641-207.21S297.2,1210.35,297.2,1325.15Zm91.84,0c0-63.14,51.66-115.37,114.226-115.37,63.14,0,114.8,52.23,114.8,115.37,0,62.57-51.661,114.23-114.8,114.23C440.7,1439.38,389.044,1387.72,389.044,1325.15ZM766.5,1514.57a10.9,10.9,0,0,0,10.906,10.91H993.229a10.9,10.9,0,0,0,10.9-10.91v-62.56a10.9,10.9,0,0,0-10.9-10.91H856.617V1134.58a11.285,11.285,0,0,0-10.906-10.9H777.4a10.894,10.894,0,0,0-10.906,10.9v379.99Zm263.692-142.92c0,87.24,72.89,159.57,163.01,159.57,90.69,0,164.17-72.33,164.17-159.57V1134.58a11.288,11.288,0,0,0-10.91-10.9h-70.6a10.893,10.893,0,0,0-10.91,10.9v232.47c0,40.18-30.42,72.33-71.75,72.33-40.75,0-70.6-32.15-70.6-72.33V1134.58a10.893,10.893,0,0,0-10.91-10.9h-70.6a11.279,11.279,0,0,0-10.9,10.9v237.07Zm455.52,142.92a11.288,11.288,0,0,0,10.9,10.91h68.88a11.3,11.3,0,0,0,10.91-10.91V1208.05h82.08a10.893,10.893,0,0,0,10.91-10.9v-62.57a10.893,10.893,0,0,0-10.91-10.9H1403.63a10.893,10.893,0,0,0-10.91,10.9v62.57a10.893,10.893,0,0,0,10.91,10.9h82.08v306.52Zm221.56,0a11.3,11.3,0,0,0,10.91,10.91h68.88a11.288,11.288,0,0,0,10.9-10.91V1134.58a11.279,11.279,0,0,0-10.9-10.9h-68.88a11.288,11.288,0,0,0-10.91,10.9v379.99Zm146.02-189.42c0,114.8,91.26,206.07,206.06,206.07s206.64-91.27,206.64-206.07-91.84-207.21-206.64-207.21S1853.29,1210.35,1853.29,1325.15Zm91.84,0c0-63.14,51.66-115.37,114.22-115.37,63.14,0,114.8,52.23,114.8,115.37,0,62.57-51.66,114.23-114.8,114.23C1996.79,1439.38,1945.13,1387.72,1945.13,1325.15Zm377.74,189.42a11.288,11.288,0,0,0,10.9,10.91h68.31a10.908,10.908,0,0,0,10.91-10.91v-214.1h0.57l226.73,227.88c1.15,1.15,5.74,2.87,7.46,2.87h9.19c5.74,0,10.9-4.59,10.9-10.33V1134.58a11.279,11.279,0,0,0-10.9-10.9h-68.88a10.893,10.893,0,0,0-10.91,10.9v203.77h-0.57l-229.03-220.41H2333.2c-5.74,0-10.91,4.59-10.91,10.33Zm412.01-27.55c13.2,13.2,54.53,44.2,129.15,44.2,84.38,0,135.47-59.7,135.47-118.82,0-78.06-71.18-113.08-115.95-130.87-45.35-18.37-62.57-34.44-62.57-55.68,0-15.5,15.5-29.28,36.17-29.28,35.01,0,76.91,31.57,82.08,34.44,5.16,4.02,15.5-1.14,19.51-7.46l29.28-44.2c2.29-4.01,3.44-14.35-3.45-18.36-17.22-12.63-63.14-43.05-122.83-43.05-88.4,0-132.6,57.4-132.6,114.22,0,68.88,62,107.34,111.36,126.86,39.03,15.5,59.12,33.86,59.12,57.97,0,20.09-16.64,34.44-39.6,34.44-37.89,0-79.22-30.42-81.51-31.57-4.02-2.87-14.93-4.02-19.52,3.45l-26.98,47.64C2727.42,1478.98,2729.14,1481.28,2734.88,1487.02Z"/>
  <path id="T" class="cls-2" d="M2595.65,872.386c0,12.624,11.4,23.987,24.07,23.987h152.02c12.66,0,24.06-11.363,24.06-23.987V198.226h181.16a24.015,24.015,0,0,0,24.07-23.986V36.63a24.015,24.015,0,0,0-24.07-23.987H2414.5a24.008,24.008,0,0,0-24.07,23.987V174.24a24.008,24.008,0,0,0,24.07,23.986h181.15v674.16Z"/>
  <path id="O" class="cls-3" d="M1464.66,455.77C1464.66,708.264,1666.08,909,1919.44,909s456.05-200.733,456.05-453.227S2172.8,0.019,1919.44.019,1464.66,203.276,1464.66,455.77Zm202.69,0c0-138.871,114.01-253.756,252.09-253.756,139.35,0,253.36,114.885,253.36,253.756C2172.8,593.379,2058.79,707,1919.44,707,1781.36,707,1667.35,593.379,1667.35,455.77Z"/>
  <path id="L" class="cls-4" d="M927.8,872.386a24.013,24.013,0,0,0,24.07,23.987H1428.19a24.015,24.015,0,0,0,24.07-23.987V734.776a24.015,24.015,0,0,0-24.07-23.987h-301.5V36.63c0-12.625-11.4-23.987-24.07-23.987H951.868A24.012,24.012,0,0,0,927.8,36.63V872.386Z"/>
  <path id="A" class="cls-1" d="M25.085,896.373H164.432c25.337,0,39.272-15.15,45.606-30.3L427,384l96,210H415.286c-20.382,0-23.673,12.792-23.673,12.792l-58.2,138.218S323.672,765,350.358,765c59.206,0,249.855.071,249.855,0.071l45.606,99.735c11.4,23.987,21.536,31.563,44.338,31.563H830.772c19,0,29.136-16.413,21.536-32.825L455.8,13.906C452,6.331,443.13.019,434.262,0.019H421.594c-8.868,0-17.736,6.312-21.535,13.887L3.548,863.548C-4.052,879.96,6.082,896.373,25.085,896.373Z"/>
</svg>
