<?xml version="1.0" encoding="utf-8"?>
<!-- Generator: Adobe Illustrator 23.0.6, SVG Export Plug-In . SVG Version: 6.00 Build 0)  -->
<svg version="1.1" id="Layer_1" xmlns="http://www.w3.org/2000/svg" xmlns:xlink="http://www.w3.org/1999/xlink" x="0px" y="0px"
	 viewBox="0 0 437.8 136.8" style="enable-background:new 0 0 437.8 136.8;" xml:space="preserve">
<style type="text/css">
	.st0{fill-rule:evenodd;clip-rule:evenodd;fill:#FFFFFF;}
</style>
<g>
	<path class="st0" d="M201.4,99.2c-21.8,15.1-49.6,21.6-87.4,21.6c-37.7,0-65.6-6.5-87.4-21.6c-3.8-2.6-7.6-0.2-3.7,4.7
		c17,18.7,51.8,32.8,91,32.8c39.2,0,74-14.1,91-32.8C209,99,205.2,96.6,201.4,99.2z"/>
	<path class="st0" d="M43.1,82.9c1.7-0.3,2.3-0.5,2.3-2.1v-7.9c0-1.2-1-2.2-2.2-2.2l-17.4,0c-7.1,0-9.8-1.8-9.8-9.5V2.2
		C16,1,15,0,13.9,0H2.2C1,0,0,1,0,2.2v59.1c0,20.5,7.5,22.6,27.5,22.6C33.6,83.8,39.6,83.6,43.1,82.9z"/>
	<path class="st0" d="M75.1,83.8c18.1,0,27.5-11.7,27.5-27.4v-8.9c0-15.7-9.4-27.4-27.5-27.4c-18.1,0-27.5,11.7-27.5,27.4v8.9
		C47.6,72.2,57,83.8,75.1,83.8z M62.8,47.5c0-9,4.3-14.9,12.3-14.9c8.1,0,12.3,5.8,12.3,14.9v8.9c0,9-4.3,14.9-12.3,14.9
		c-8.1,0-12.3-5.8-12.3-14.9V47.5z"/>
	<path class="st0" d="M107,31.8h5.1v34.5c0,14.8,5.3,17.5,18.3,17.5c2.5,0,6-0.2,7.8-0.8c1.7-0.4,2-0.8,2.1-1.4
		c0-0.2,0.1-0.3,0.1-0.5v-6.4c0-1.2-1-2.2-2.2-2.2l-6.4,0c-4.1,0-4.5-0.7-4.5-6.2V31.8h19.3v34.5c0,14.8,5.3,17.5,18.3,17.5
		c2.5,0,6-0.2,7.8-0.8c1.7-0.4,2-0.8,2.1-1.4c0-0.2,0.1-0.3,0.1-0.5v-6.4c0-1.2-1-2.2-2.2-2.2l-6.4,0c-4.1,0-4.5-0.7-4.5-6.2V31.8h8
		c1.2,0,2.2-1,2.2-2.2V23c0-1.2-1-2.2-2.2-2.2h-8V5.3c0-1.1-0.8-1.7-1.8-1.7h-0.5L149,5.4c-1.3,0.2-2.3,1-2.3,2.2v13.2h-19.3V5.3
		c0-1.1-0.8-1.7-1.8-1.7h-0.5l-10.7,1.8c-1.3,0.2-2.3,1-2.3,2.2v13.2H107c-1.2,0-2.2,1-2.2,2.2v6.6C104.8,30.8,105.8,31.8,107,31.8z
		"/>
	<path class="st0" d="M204.8,19.9c-18.1,0-27.5,11.7-27.5,27.4v8.9c0,15.7,9.5,27.4,27.5,27.4c18.1,0,27.5-11.7,27.5-27.4v-8.9
		C232.3,31.5,222.9,19.9,204.8,19.9z M217.1,56.2c0,9-4.3,14.9-12.3,14.9c-8.1,0-12.3-5.8-12.3-14.9v-8.9c0-9,4.3-14.9,12.3-14.9
		c8.1,0,12.3,5.8,12.3,14.9V56.2z"/>
	<path class="st0" d="M253.7,0h-11.1c-1.2,0-2.1,1-2.1,2.2v78.6c0,1.2,0.9,2.2,2.1,2.2h11.1c1.2,0,2.1-1,2.1-2.2V2.2
		C255.8,1,254.8,0,253.7,0z"/>
	<path class="st0" d="M289.1,20.1c-8,0-14.6,0.9-19.2,1.8c-1.5,0.3-2.2,1.1-2.2,2.3v7c0,1.5,0.9,1.9,2.1,1.9h0.6
		c3.8-0.4,11.4-0.9,18.8-0.9c6.8,0,10.1,1.8,10.1,8.9V46H292c-20.1,0-28.1,6.5-28.1,19v0.4c0,14.9,10.4,18.4,19.9,18.4
		c5.5,0,10.9-1.8,16.2-4.8v1.8c0,1.2,1,2.2,2.3,2.2h9.8c1.3,0,2.3-1,2.3-2.2V41.1C314.5,27,305.5,20.1,289.1,20.1z M299.3,69.2
		c-3.3,1.8-7.6,3.1-11.8,3.1c-5.8,0-8.3-1.4-8.3-6.8V65c0-6.2,2.3-9.4,12.8-9.4h7.3V69.2z"/>
	<path class="st0" d="M435.5,0h-10.6c-1.3,0-2.3,1-2.3,2.2v18.6c-4.3-0.6-8.3-0.8-11.1-0.8c-18.6,0-27.5,10.5-27.5,27.6v8.5
		c0,17.2,9,27.6,27.5,27.6c7.4,0,16-1.1,23.2-2.9c2.7-0.7,3.1-1.3,3.1-3V2.2C437.8,1,436.7,0,435.5,0z M422.6,71.2
		c-2.2,0.4-6.9,0.8-11.1,0.8c-9.9,0-12.3-6.7-12.3-15.7v-8.5c0-9,2.4-15.7,12.3-15.7c2.8,0,7.8,0.3,11.1,0.8V71.2z"/>
	<path class="st0" d="M355.9,20.1c-7.6,0-12,1.2-18.7,5.3v-2.3c0-1.2-1-2.2-2.3-2.2h-10c-1.3,0-2.3,1-2.3,2.2v57.6
		c0,1.2,1,2.3,2.3,2.3h10.6c1.3,0,2.3-1.1,2.3-2.3V36.4c4.8-2.4,9.1-4,13-4c8.9,0,9.8,2.8,9.8,12.3v35.9c0,1.2,1,2.3,2.3,2.3h10.6
		c1.3,0,2.3-1.1,2.3-2.3V44.7C375.8,30.8,372.5,20.1,355.9,20.1z"/>
</g>
</svg>
